#define catback_width 150
#define catback_height 300
#define catback_x_hot 1
#define catback_y_hot 1
static unsigned char catback_bits[] = {
   0x00, 0x00, 0x00, 0x00, 0x00, 0x00, 0x00, 0x00, 0x00, 0x00, 0x00, 0x00,
   0x00, 0x00, 0x00, 0x00, 0x00, 0x00, 0x00, 0x00, 0x00, 0x00, 0x00, 0x00,
   0x00, 0x00, 0x00, 0x00, 0x00, 0x00, 0x00, 0x00, 0x00, 0x00, 0x00, 0x00,
   0x00, 0x00, 0x00, 0x00, 0x00, 0x00, 0x00, 0x00, 0x00, 0x00, 0x00, 0x00,
   0x00, 0x00, 0x00, 0x00, 0x00, 0x00, 0x00, 0x00, 0x00, 0x00, 0x00, 0x00,
   0x00, 0x00, 0x00, 0x00, 0x00, 0x00, 0x00, 0x00, 0x00, 0x00, 0x00, 0x00,
   0x00, 0x00, 0x00, 0x00, 0x00, 0x00, 0x00, 0x00, 0x00, 0x00, 0x00, 0x00,
   0x00, 0x00, 0x00, 0x00, 0x00, 0x00, 0x00, 0x10, 0x00, 0x00, 0x00, 0x00,
   0x00, 0x00, 0x00, 0x00, 0x00, 0x00, 0x00, 0x00, 0x00, 0x00, 0x00, 0x00,
   0x00, 0x00, 0x08, 0x00, 0x00, 0x00, 0x00, 0x00, 0x00, 0x00, 0x00, 0x00,
   0x00, 0x00, 0x00, 0x00, 0x00, 0x00, 0x00, 0x00, 0x00, 0x0e, 0x00, 0x00,
   0x00, 0x00, 0x00, 0x00, 0x00, 0x02, 0x00, 0x00, 0x00, 0x00, 0x00, 0x00,
   0x00, 0x00, 0x00, 0xc0, 0x0f, 0x00, 0x00, 0x00, 0x00, 0x00, 0x00, 0x00,
   0x0e, 0x00, 0x00, 0x00, 0x00, 0x00, 0x00, 0x00, 0x00, 0x00, 0xf0, 0x0d,
   0x00, 0x00, 0x00, 0x00, 0x00, 0x00, 0x00, 0x3a, 0x00, 0x00, 0x00, 0x00,
   0x00, 0x00, 0x00, 0x00, 0x00, 0xfc, 0x0e, 0x00, 0x00, 0x00, 0x00, 0x00,
   0x00, 0x00, 0xfe, 0x00, 0x00, 0x00, 0x00, 0x00, 0x00, 0x00, 0x00, 0xc0,
   0x7f, 0x06, 0x00, 0x00, 0x00, 0x00, 0x00, 0x00, 0x00, 0xd6, 0x0f, 0x00,
   0x00, 0x00, 0x00, 0x00, 0x00, 0x00, 0xf0, 0x1b, 0x06, 0x00, 0x00, 0x00,
   0x00, 0x00, 0x00, 0x00, 0xae, 0x7f, 0x00, 0x00, 0x00, 0x00, 0x00, 0x00,
   0x00, 0xf8, 0x06, 0x03, 0x00, 0x00, 0x00, 0x00, 0x00, 0x00, 0x00, 0x5a,
   0xfd, 0x07, 0x00, 0x00, 0x00, 0x00, 0x00, 0x00, 0x5f, 0x03, 0x03, 0x00,
   0x00, 0x00, 0x00, 0x00, 0x00, 0x00, 0xb6, 0xfa, 0x3f, 0x00, 0x00, 0x00,
   0x00, 0x00, 0xc0, 0xaf, 0x01, 0x03, 0x00, 0x00, 0x00, 0x00, 0x00, 0x00,
   0x00, 0x66, 0xd5, 0xff, 0x01, 0x00, 0x00, 0x00, 0x00, 0xf0, 0xd5, 0x80,
   0x01, 0x00, 0x00, 0x00, 0x00, 0x00, 0x00, 0x00, 0xc6, 0xaa, 0xfe, 0x0f,
   0x00, 0xff, 0x07, 0x00, 0xfc, 0x6a, 0x80, 0x01, 0x00, 0x00, 0x00, 0x00,
   0x00, 0x00, 0x00, 0x8e, 0x55, 0xf5, 0xff, 0xfd, 0xff, 0x7f, 0x80, 0x5f,
   0x35, 0x80, 0x01, 0x00, 0x00, 0x00, 0x00, 0x00, 0x00, 0x00, 0x0e, 0xab,
   0xaa, 0xfb, 0xff, 0xaa, 0xfa, 0xff, 0xab, 0x3a, 0xc0, 0x00, 0x00, 0x00,
   0x00, 0x00, 0x00, 0x00, 0x00, 0x0c, 0x56, 0x55, 0xf5, 0x57, 0x55, 0xd5,
   0xff, 0x55, 0x1d, 0xc0, 0x00, 0x00, 0x00, 0x00, 0x00, 0x00, 0x00, 0x00,
   0x0c, 0xac, 0xaa, 0xfa, 0xaa, 0xaa, 0xaa, 0xbe, 0xaa, 0x0e, 0xc0, 0x00,
   0x00, 0x00, 0x00, 0x00, 0x00, 0x00, 0x00, 0x0c, 0x58, 0x55, 0x75, 0x55,
   0x55, 0x55, 0x7d, 0x55, 0x0d, 0xe0, 0x00, 0x00, 0x00, 0x00, 0x00, 0x00,
   0x00, 0x00, 0x1c, 0xb0, 0xaa, 0xba, 0xaa, 0xaa, 0xaa, 0xfa, 0xaa, 0x06,
   0x60, 0x00, 0x00, 0x00, 0x00, 0x00, 0x00, 0x00, 0x00, 0x1c, 0x60, 0x55,
   0x5f, 0x55, 0x55, 0x55, 0x75, 0x55, 0x07, 0x60, 0x00, 0x00, 0x00, 0x00,
   0x00, 0x00, 0x00, 0x00, 0x18, 0xc0, 0xaa, 0xaf, 0xaa, 0xaa, 0xaa, 0xea,
   0xaa, 0x03, 0x30, 0x00, 0x00, 0x00, 0x00, 0x00, 0x00, 0x00, 0x00, 0x18,
   0x80, 0xd5, 0x57, 0x55, 0x55, 0x55, 0xd5, 0x55, 0x2f, 0x30, 0x00, 0x00,
   0x00, 0x00, 0x00, 0x00, 0x00, 0x00, 0x18, 0xf8, 0xaf, 0xab, 0xaa, 0xaa,
   0xaa, 0xaa, 0xaa, 0x3b, 0x30, 0x00, 0x00, 0x00, 0x00, 0x00, 0x00, 0x00,
   0x00, 0x38, 0xd8, 0xf7, 0x55, 0x55, 0x55, 0x55, 0xd5, 0xd5, 0x38, 0x38,
   0x00, 0x00, 0x00, 0x00, 0x00, 0x00, 0x00, 0x00, 0x30, 0x3c, 0xef, 0xaa,
   0xea, 0xaa, 0xaa, 0xaa, 0xeb, 0x2c, 0x38, 0x00, 0x00, 0x00, 0x00, 0x00,
   0x00, 0x00, 0x00, 0x30, 0x6c, 0x7e, 0x55, 0xd5, 0x55, 0x55, 0x55, 0x77,
   0x24, 0x38, 0x00, 0x00, 0x00, 0x00, 0x00, 0x00, 0x00, 0x00, 0x30, 0xcc,
   0xbf, 0xaa, 0xaa, 0xab, 0xaa, 0xaa, 0x6e, 0x66, 0x1c, 0x00, 0x00, 0x00,
   0x00, 0x00, 0x00, 0x00, 0x00, 0x70, 0x84, 0x7f, 0x55, 0xd5, 0x57, 0x55,
   0x55, 0x7d, 0x63, 0x1c, 0x00, 0x00, 0x00, 0x00, 0x00, 0x00, 0x00, 0x00,
   0x60, 0x04, 0xf3, 0xaa, 0xaa, 0xbf, 0xaa, 0xaa, 0x7a, 0x31, 0x0c, 0x00,
   0x00, 0x00, 0x00, 0x00, 0x00, 0x00, 0x00, 0x60, 0xc8, 0xe1, 0x57, 0x55,
   0x7b, 0xd5, 0x55, 0xf5, 0x39, 0x0e, 0x00, 0x00, 0x00, 0x00, 0x00, 0x00,
   0x00, 0x00, 0xe0, 0x7c, 0x00, 0xbf, 0xaa, 0xf2, 0xaa, 0xbf, 0xaa, 0x3f,
   0x07, 0x00, 0x00, 0x00, 0x00, 0x00, 0x00, 0x00, 0x00, 0xe0, 0x0c, 0x00,
   0xfc, 0x55, 0xc7, 0x57, 0xff, 0xd7, 0x77, 0x07, 0x00, 0x00, 0x00, 0x00,
   0x00, 0x00, 0x00, 0x00, 0xc0, 0x06, 0x00, 0xe0, 0xaf, 0x06, 0xaf, 0xde,
   0xff, 0xe1, 0x03, 0x00, 0x00, 0x00, 0x00, 0x00, 0x00, 0x00, 0x00, 0xc0,
   0x07, 0x0c, 0x00, 0xfe, 0x0f, 0x7c, 0x35, 0x7c, 0xc0, 0x03, 0x00, 0x00,
   0x00, 0x00, 0x00, 0x00, 0x00, 0x00, 0xe0, 0x03, 0x0f, 0x00, 0xe0, 0x1f,
   0xf0, 0x7f, 0xe0, 0xc0, 0x01, 0x00, 0x00, 0x00, 0x00, 0x00, 0x00, 0x00,
   0x00, 0xc0, 0x83, 0x03, 0x00, 0x00, 0x00, 0xc0, 0xff, 0x80, 0x81, 0x01,
   0x00, 0x00, 0x00, 0x00, 0x00, 0x00, 0x00, 0x00, 0x80, 0xc3, 0x01, 0x10,
   0x00, 0x00, 0x00, 0x18, 0x00, 0x83, 0x03, 0x00, 0x00, 0x00, 0x00, 0x00,
   0x00, 0x00, 0x00, 0x80, 0xe1, 0x00, 0xfe, 0x00, 0x00, 0x00, 0xfe, 0x00,
   0x86, 0x03, 0x00, 0x00, 0x00, 0x00, 0x00, 0x00, 0x00, 0x00, 0xc0, 0x61,
   0x80, 0xff, 0x03, 0x00, 0x80, 0xff, 0x03, 0x06, 0x03, 0x00, 0x00, 0x00,
   0x00, 0x00, 0x00, 0x00, 0x00, 0xc0, 0x30, 0xe0, 0xe3, 0x03, 0x00, 0xc0,
   0xcb, 0x07, 0x0c, 0x03, 0x00, 0x00, 0x00, 0x00, 0x00, 0x00, 0x00, 0x00,
   0xc0, 0x30, 0xf0, 0x80, 0x07, 0x00, 0xe0, 0x00, 0x0e, 0x08, 0x02, 0x00,
   0x00, 0x00, 0x00, 0x00, 0x00, 0x00, 0x00, 0x60, 0x30, 0x78, 0x00, 0x0e,
   0x00, 0x30, 0x00, 0x1c, 0x00, 0x06, 0x00, 0x00, 0x00, 0x00, 0x00, 0x00,
   0x00, 0x00, 0x60, 0x00, 0x1c, 0x00, 0x1c, 0x00, 0x18, 0x00, 0x38, 0x00,
   0x06, 0x00, 0x00, 0x00, 0x00, 0x00, 0x00, 0x00, 0x00, 0x60, 0x00, 0x0c,
   0x00, 0x38, 0x00, 0x18, 0x00, 0x30, 0x00, 0x06, 0x00, 0x00, 0x00, 0x00,
   0x00, 0x00, 0x00, 0x00, 0x60, 0x00, 0x0e, 0x00, 0x38, 0x00, 0x0c, 0x00,
   0x30, 0x00, 0x0e, 0x00, 0x00, 0x00, 0x00, 0x00, 0x00, 0x00, 0x00, 0x70,
   0x00, 0x02, 0x00, 0x30, 0x00, 0x0c, 0x00, 0x60, 0x00, 0x0c, 0x00, 0x00,
   0x00, 0x00, 0x00, 0x00, 0x00, 0x00, 0x30, 0x00, 0x02, 0x00, 0x30, 0x00,
   0x06, 0x00, 0x60, 0x00, 0x0c, 0x00, 0x00, 0x00, 0x00, 0x00, 0x00, 0x00,
   0x00, 0x30, 0x00, 0x03, 0x00, 0x30, 0x00, 0x06, 0x00, 0x60, 0x00, 0x0c,
   0x00, 0x00, 0x00, 0x00, 0x00, 0x00, 0x00, 0x00, 0x30, 0x00, 0x03, 0x00,
   0x70, 0x00, 0x07, 0x00, 0x60, 0x00, 0x0c, 0x00, 0x00, 0x00, 0x00, 0x00,
   0x00, 0x00, 0x00, 0x30, 0x00, 0x03, 0x00, 0x70, 0x00, 0x07, 0x00, 0x60,
   0x00, 0x0c, 0x00, 0x00, 0x00, 0x00, 0x00, 0x00, 0x00, 0x00, 0x30, 0x00,
   0x03, 0x00, 0x70, 0x00, 0x07, 0x00, 0x60, 0x00, 0x0c, 0x00, 0x00, 0x00,
   0x00, 0x00, 0x00, 0x00, 0x00, 0x30, 0x00, 0x03, 0x00, 0x70, 0x00, 0x07,
   0x00, 0x60, 0x00, 0x0c, 0x00, 0x00, 0x00, 0x00, 0x00, 0x00, 0x00, 0x00,
   0x30, 0x00, 0x03, 0x00, 0x60, 0x00, 0x07, 0x00, 0x40, 0x00, 0x0c, 0x00,
   0x00, 0x00, 0x00, 0x00, 0x00, 0x00, 0x00, 0x30, 0x00, 0x03, 0x00, 0x60,
   0x00, 0x07, 0x00, 0x40, 0x00, 0x0c, 0x00, 0x00, 0x00, 0x00, 0x00, 0x00,
   0x00, 0x00, 0x30, 0x00, 0x03, 0x00, 0x60, 0x00, 0x07, 0x00, 0x40, 0x00,
   0x0c, 0x00, 0x00, 0x00, 0x00, 0x00, 0x00, 0x00, 0x00, 0x30, 0x00, 0x03,
   0x00, 0x60, 0x00, 0x03, 0x00, 0x40, 0x00, 0x0c, 0x00, 0x00, 0x00, 0x00,
   0x00, 0x00, 0x00, 0x00, 0x30, 0x00, 0x03, 0x00, 0x60, 0x00, 0x03, 0x00,
   0x40, 0x00, 0x0c, 0x00, 0x00, 0x00, 0x00, 0x00, 0x00, 0x00, 0x00, 0x30,
   0x00, 0x03, 0x00, 0x60, 0x00, 0x03, 0x00, 0x40, 0x00, 0x0c, 0x00, 0x00,
   0x00, 0x00, 0x00, 0x00, 0x00, 0x00, 0x30, 0x00, 0x03, 0x00, 0x60, 0x00,
   0x03, 0x00, 0x40, 0x00, 0x0c, 0x00, 0x00, 0x00, 0x00, 0x00, 0x00, 0x00,
   0x00, 0x30, 0x00, 0x03, 0x00, 0x60, 0x00, 0x03, 0x00, 0x40, 0x00, 0x0e,
   0x00, 0x00, 0x00, 0x00, 0x00, 0x00, 0x00, 0x00, 0x60, 0x00, 0x02, 0x00,
   0x60, 0x00, 0x03, 0x00, 0x40, 0x00, 0x06, 0x00, 0x00, 0x00, 0x00, 0x00,
   0x00, 0x00, 0x00, 0x60, 0x00, 0x02, 0x00, 0x60, 0x00, 0x03, 0x00, 0x60,
   0x00, 0x06, 0x00, 0x00, 0x00, 0x00, 0x00, 0x00, 0x00, 0x00, 0x60, 0x00,
   0x02, 0x00, 0x60, 0x00, 0x03, 0x00, 0x60, 0x00, 0x06, 0x00, 0x00, 0x00,
   0x00, 0x00, 0x00, 0x00, 0x00, 0xe0, 0x00, 0x02, 0x00, 0x20, 0x00, 0x02,
   0x00, 0x60, 0x00, 0x06, 0x00, 0x00, 0x00, 0x00, 0x00, 0x00, 0x00, 0x00,
   0xc0, 0x00, 0x02, 0x00, 0x20, 0x00, 0x02, 0x00, 0x60, 0x00, 0x02, 0x00,
   0x00, 0x00, 0x00, 0x00, 0x00, 0x00, 0x00, 0xc0, 0x00, 0x02, 0x00, 0x20,
   0x00, 0x02, 0x00, 0x60, 0x00, 0x03, 0x00, 0x00, 0x00, 0x00, 0x00, 0x00,
   0x00, 0x00, 0xc0, 0x00, 0x02, 0x00, 0x20, 0x00, 0x02, 0x00, 0x60, 0x00,
   0x03, 0x00, 0x00, 0x00, 0x00, 0x00, 0x00, 0x00, 0x00, 0x80, 0x01, 0x02,
   0x00, 0x20, 0x00, 0x02, 0x00, 0x20, 0x80, 0x01, 0x00, 0x00, 0x00, 0x00,
   0x00, 0x00, 0x00, 0x00, 0x80, 0x01, 0x02, 0x00, 0x20, 0x00, 0x02, 0x00,
   0x20, 0x80, 0x01, 0x00, 0x00, 0x00, 0x00, 0x00, 0x00, 0x00, 0x00, 0x80,
   0x03, 0x02, 0x00, 0x20, 0x00, 0x02, 0x00, 0x20, 0xc0, 0x00, 0x00, 0x00,
   0x00, 0x00, 0x00, 0x00, 0x00, 0x00, 0x00, 0x03, 0x02, 0x00, 0x20, 0x00,
   0x02, 0x00, 0x20, 0xc0, 0x00, 0x00, 0x00, 0x00, 0x00, 0x00, 0x00, 0x00,
   0x00, 0x00, 0x07, 0x02, 0x00, 0x20, 0x00, 0x02, 0x00, 0x20, 0x60, 0x00,
   0x00, 0x00, 0x00, 0x00, 0x00, 0x00, 0x00, 0x00, 0x00, 0x06, 0x02, 0x00,
   0x20, 0x00, 0x02, 0x00, 0x20, 0x60, 0x00, 0x00, 0x00, 0x00, 0x00, 0x00,
   0x00, 0x00, 0x00, 0x00, 0x06, 0xc2, 0xff, 0x2f, 0x00, 0xfe, 0xff, 0x27,
   0x30, 0x00, 0x00, 0x00, 0x00, 0x00, 0x00, 0x00, 0x00, 0x00, 0x00, 0x0c,
   0xfe, 0x3f, 0x3f, 0x00, 0xfe, 0xff, 0x3f, 0x30, 0x00, 0x00, 0x00, 0x00,
   0x00, 0x00, 0x00, 0x00, 0x00, 0xe0, 0x1f, 0x00, 0x00, 0x00, 0x00, 0x00,
   0x00, 0x00, 0x18, 0x00, 0x00, 0x00, 0x00, 0x00, 0x00, 0x00, 0x00, 0x00,
   0xc0, 0x1f, 0x00, 0x00, 0x00, 0x00, 0x00, 0x00, 0x00, 0x0c, 0x00, 0x00,
   0x00, 0x00, 0x00, 0x00, 0x00, 0x00, 0x00, 0xc0, 0x01, 0x00, 0x00, 0x00,
   0x00, 0x00, 0x00, 0x00, 0x0e, 0x00, 0x00, 0x00, 0x00, 0x00, 0x00, 0x00,
   0x00, 0x00, 0x80, 0x03, 0x00, 0x00, 0x00, 0x00, 0x00, 0x00, 0x00, 0x06,
   0x00, 0x00, 0x00, 0x00, 0x00, 0x00, 0x00, 0x00, 0x00, 0x00, 0x0f, 0x00,
   0x00, 0x00, 0x00, 0x00, 0x00, 0x80, 0x03, 0x00, 0x00, 0x00, 0x00, 0x00,
   0x00, 0x00, 0x00, 0x00, 0x00, 0x1e, 0x00, 0x00, 0x00, 0x0c, 0x08, 0x00,
   0xc0, 0x01, 0x00, 0x00, 0x00, 0x00, 0x00, 0x00, 0x00, 0x00, 0x00, 0x00,
   0x3c, 0x00, 0x00, 0x06, 0x1e, 0x0c, 0x00, 0xe0, 0x00, 0x00, 0x00, 0x00,
   0x00, 0x00, 0x00, 0x00, 0x00, 0x00, 0x00, 0xf0, 0x00, 0x00, 0xfe, 0x33,
   0x0f, 0x00, 0x70, 0x00, 0x00, 0x00, 0x00, 0x00, 0x00, 0x00, 0x00, 0x00,
   0x00, 0x00, 0xe0, 0x03, 0x00, 0xf8, 0xe1, 0x07, 0x00, 0x38, 0x00, 0x00,
   0x00, 0x00, 0x00, 0x00, 0x00, 0x00, 0x00, 0x00, 0x00, 0x80, 0x0f, 0x00,
   0x78, 0x00, 0x06, 0x00, 0x0e, 0x00, 0x00, 0x00, 0x00, 0x00, 0x00, 0x00,
   0x00, 0x00, 0x00, 0x00, 0x00, 0x3f, 0x00, 0x30, 0x00, 0x00, 0x80, 0x07,
   0xff, 0x00, 0x00, 0x00, 0x00, 0x00, 0x00, 0x00, 0x00, 0x00, 0x00, 0x00,
   0xfc, 0x00, 0x00, 0x00, 0x00, 0xc0, 0xc1, 0xff, 0x0f, 0x00, 0x00, 0x00,
   0x00, 0x00, 0x00, 0x00, 0x00, 0x00, 0x00, 0xe0, 0x07, 0x00, 0x00, 0x00,
   0xf0, 0x78, 0x00, 0x3f, 0x00, 0x00, 0x00, 0x00, 0x00, 0x00, 0x00, 0x00,
   0x00, 0x00, 0xf8, 0xff, 0x0f, 0x7e, 0xf8, 0xff, 0xff, 0x00, 0x78, 0x00,
   0x00, 0x00, 0x00, 0x00, 0x00, 0x00, 0x00, 0x00, 0x00, 0x7e, 0x55, 0x7f,
   0xd7, 0x7f, 0x55, 0xff, 0x03, 0xe0, 0x00, 0x00, 0x00, 0x00, 0x00, 0x00,
   0x00, 0x00, 0x00, 0x80, 0xaf, 0xaa, 0xea, 0xeb, 0xab, 0xaa, 0x1a, 0x0f,
   0xc0, 0x01, 0x00, 0x00, 0x00, 0x00, 0x00, 0x00, 0x00, 0x00, 0xe0, 0x7f,
   0x5d, 0xf5, 0x75, 0x57, 0x5d, 0x1d, 0x3c, 0x80, 0x03, 0x00, 0x00, 0x00,
   0x00, 0x00, 0x00, 0x00, 0x00, 0xf0, 0xbf, 0xfa, 0xff, 0xaa, 0xfe, 0xaf,
   0x0e, 0xfe, 0x00, 0x07, 0x00, 0x00, 0x00, 0x00, 0x00, 0x00, 0x00, 0x00,
   0xfc, 0x7f, 0x55, 0x7f, 0x75, 0x7f, 0x55, 0x87, 0xc7, 0x01, 0x0e, 0x00,
   0x00, 0x00, 0x00, 0x00, 0x00, 0x00, 0x00, 0xfe, 0xff, 0xaa, 0xfa, 0xba,
   0xae, 0xaa, 0xc3, 0x81, 0x03, 0x1c, 0x00, 0x00, 0x00, 0x00, 0x00, 0x00,
   0x00, 0x00, 0xff, 0x7f, 0x55, 0x75, 0x5d, 0x57, 0x55, 0xc1, 0x00, 0x06,
   0x38, 0x00, 0x00, 0x00, 0x00, 0x00, 0x00, 0x00, 0x80, 0xff, 0xff, 0xaa,
   0xfe, 0xae, 0xbe, 0xaa, 0x61, 0x00, 0x0c, 0x30, 0x00, 0x00, 0x00, 0x00,
   0x00, 0x00, 0xe0, 0xff, 0xff, 0xff, 0xd5, 0xd7, 0x57, 0xf7, 0xd5, 0x31,
   0x00, 0x1f, 0x70, 0x00, 0x00, 0x00, 0x00, 0x00, 0x00, 0x7c, 0xf0, 0xff,
   0xff, 0xea, 0xaa, 0xeb, 0xab, 0xab, 0x33, 0x00, 0x3e, 0x60, 0x00, 0x00,
   0x00, 0x00, 0x00, 0x00, 0x0e, 0xf8, 0xff, 0x7f, 0x55, 0xd5, 0xff, 0x55,
   0x55, 0x13, 0x00, 0x3f, 0x60, 0x00, 0x00, 0x00, 0x00, 0x00, 0x80, 0x01,
   0x9c, 0xff, 0xff, 0xaa, 0xea, 0xff, 0xab, 0xaa, 0x1b, 0x80, 0x61, 0x60,
   0x00, 0x00, 0x00, 0x00, 0x00, 0xe0, 0x00, 0x0e, 0xff, 0x7f, 0x55, 0xf5,
   0xff, 0x57, 0x55, 0x1f, 0xe0, 0x60, 0x60, 0x00, 0x00, 0x00, 0x00, 0x00,
   0x70, 0x00, 0x07, 0xfe, 0xff, 0xaa, 0x7a, 0x00, 0xaf, 0xaa, 0x0f, 0x60,
   0xc0, 0x60, 0x00, 0x00, 0x00, 0x00, 0x00, 0x30, 0x80, 0x03, 0xfc, 0xff,
   0x55, 0x3d, 0x00, 0x5e, 0xd5, 0x0f, 0x30, 0xc0, 0x30, 0x00, 0x00, 0x00,
   0x00, 0x00, 0x38, 0xc0, 0x1f, 0xfc, 0xff, 0xab, 0x0f, 0x00, 0xf8, 0xea,
   0x0f, 0x18, 0x80, 0x31, 0x00, 0x00, 0x00, 0x00, 0x00, 0x18, 0xc0, 0x3c,
   0xf8, 0xff, 0xf7, 0xf1, 0x7f, 0xc0, 0xf7, 0x0f, 0x18, 0x80, 0x31, 0x00,
   0x00, 0x00, 0x00, 0x00, 0x1c, 0x60, 0x78, 0xf8, 0xff, 0x3f, 0xff, 0xff,
   0x07, 0xfe, 0x1f, 0x08, 0x00, 0x19, 0x00, 0x00, 0x00, 0x00, 0x00, 0x0c,
   0x70, 0xe0, 0xf8, 0xff, 0xe0, 0x03, 0x00, 0x3e, 0xf0, 0x3f, 0x0c, 0x00,
   0x1b, 0x00, 0x00, 0x00, 0x00, 0x00, 0x0e, 0x30, 0xc0, 0xf9, 0x7f, 0x78,
   0x00, 0x00, 0x70, 0xc0, 0x7f, 0x0c, 0x00, 0x0f, 0x00, 0x00, 0x00, 0x00,
   0x00, 0x06, 0x38, 0x80, 0xf9, 0x1f, 0x0c, 0x00, 0x0c, 0xc0, 0x01, 0xff,
   0x0c, 0x00, 0x06, 0x00, 0x00, 0x00, 0x00, 0x00, 0x06, 0x58, 0x00, 0xff,
   0x0f, 0x07, 0x40, 0x1e, 0x00, 0x07, 0xfe, 0x0f, 0x18, 0x07, 0x00, 0x00,
   0x00, 0x00, 0x00, 0x06, 0xfc, 0x00, 0xfe, 0x87, 0x01, 0x60, 0x1a, 0x00,
   0x0e, 0xfc, 0x3f, 0xf0, 0x0f, 0x00, 0x00, 0x00, 0x00, 0x00, 0x06, 0xec,
   0x03, 0xfc, 0xc1, 0x00, 0x60, 0x08, 0x00, 0x18, 0xf8, 0xff, 0xff, 0x0f,
   0x00, 0x00, 0x00, 0x00, 0x00, 0x06, 0x8c, 0x03, 0xfc, 0x70, 0x42, 0x40,
   0x08, 0x00, 0x30, 0xf0, 0xff, 0xff, 0x0f, 0x00, 0x00, 0x00, 0x00, 0x00,
   0x06, 0x06, 0x03, 0x78, 0x18, 0x63, 0x40, 0x0c, 0x00, 0xe1, 0xf0, 0xff,
   0xff, 0x0f, 0x00, 0x00, 0x00, 0x00, 0x00, 0x06, 0x06, 0x06, 0x7c, 0x0c,
   0x63, 0x40, 0x44, 0x80, 0xc1, 0xe1, 0xff, 0xff, 0x0f, 0x00, 0x00, 0x00,
   0x00, 0x00, 0x06, 0x02, 0x0c, 0x3e, 0x04, 0x42, 0xc0, 0x7e, 0x80, 0x81,
   0xc1, 0xff, 0xff, 0x0f, 0x00, 0x00, 0x00, 0x00, 0x00, 0x06, 0x03, 0x1c,
   0x3e, 0x06, 0x42, 0xc0, 0x1c, 0x00, 0x01, 0xc3, 0xff, 0xff, 0x1f, 0x00,
   0x00, 0x00, 0x00, 0x00, 0x06, 0x03, 0x18, 0x1e, 0x03, 0x42, 0xe0, 0x00,
   0x00, 0x01, 0x86, 0xff, 0xff, 0x1f, 0x00, 0x00, 0x00, 0x00, 0x00, 0x0e,
   0x03, 0x38, 0x8f, 0x01, 0xe2, 0x01, 0x00, 0x00, 0x01, 0x8c, 0xff, 0xff,
   0x1f, 0x00, 0x00, 0x00, 0x00, 0x00, 0x0e, 0x01, 0xf0, 0x8f, 0x01, 0xef,
   0x01, 0x00, 0x80, 0x07, 0x0c, 0xff, 0xff, 0x1f, 0x00, 0x00, 0x00, 0x00,
   0x00, 0x0c, 0x01, 0xc0, 0xcf, 0x00, 0x0f, 0x00, 0x00, 0xc0, 0x03, 0x18,
   0xff, 0xff, 0x3f, 0x00, 0x00, 0x00, 0x00, 0x00, 0x8c, 0x01, 0xf8, 0x47,
   0x00, 0x00, 0x00, 0x00, 0x00, 0x00, 0x18, 0xfe, 0xff, 0x3f, 0x00, 0x00,
   0x00, 0x00, 0x00, 0x9c, 0x01, 0xfc, 0x63, 0x00, 0x00, 0x00, 0x00, 0x00,
   0x00, 0x30, 0xfe, 0xff, 0x3f, 0x00, 0x00, 0x00, 0x00, 0x00, 0x9c, 0x01,
   0xff, 0x23, 0x00, 0x00, 0x00, 0x00, 0x00, 0x00, 0x30, 0xfe, 0xff, 0x3f,
   0x80, 0x05, 0x00, 0x00, 0x00, 0xb8, 0xe1, 0xff, 0x21, 0xe1, 0x00, 0x00,
   0x00, 0x00, 0x00, 0x20, 0xfc, 0xff, 0x3f, 0x80, 0x07, 0x00, 0x00, 0x00,
   0xf8, 0xff, 0xff, 0x31, 0xf1, 0x00, 0x00, 0x00, 0x00, 0x80, 0x67, 0xfc,
   0xff, 0x3f, 0xc0, 0x0f, 0x00, 0x00, 0x00, 0xf0, 0xff, 0xff, 0x91, 0x91,
   0x01, 0x00, 0x00, 0x00, 0xc0, 0x66, 0xfc, 0xff, 0x3f, 0xe0, 0x0f, 0x00,
   0x00, 0x00, 0xc0, 0xff, 0xff, 0x91, 0x99, 0x01, 0x00, 0x00, 0x00, 0x40,
   0xc6, 0xfc, 0xff, 0x3f, 0xf0, 0x0d, 0x00, 0x00, 0x00, 0x00, 0xff, 0xff,
   0x19, 0x19, 0x01, 0x00, 0x00, 0x00, 0x00, 0xc2, 0xf8, 0xff, 0x3f, 0xbc,
   0x0e, 0x00, 0x00, 0x00, 0x00, 0xff, 0xff, 0x19, 0x11, 0x01, 0x00, 0x00,
   0x00, 0x00, 0xc3, 0xf8, 0xff, 0x3f, 0x7e, 0x0d, 0x00, 0x00, 0x00, 0x00,
   0xff, 0xff, 0x19, 0xd1, 0x01, 0x00, 0x00, 0x00, 0xc0, 0xc3, 0xf8, 0xff,
   0x3f, 0xb7, 0x0a, 0x00, 0x00, 0x00, 0x00, 0xff, 0xff, 0x19, 0xff, 0x00,
   0x00, 0x00, 0x00, 0xc0, 0xcf, 0xf8, 0xff, 0xff, 0x59, 0x0d, 0x00, 0x00,
   0x00, 0x00, 0xff, 0xff, 0x99, 0xe7, 0x00, 0x00, 0x00, 0x00, 0xc0, 0xc4,
   0xf8, 0xff, 0xff, 0xa8, 0x1a, 0x00, 0x00, 0x00, 0x00, 0xff, 0xff, 0x19,
   0x00, 0x00, 0x00, 0x00, 0x00, 0x00, 0x80, 0xf8, 0xff, 0x3f, 0x5c, 0x1d,
   0x00, 0x00, 0x00, 0x00, 0xff, 0xff, 0x19, 0x00, 0x00, 0x00, 0x00, 0x00,
   0x00, 0x80, 0xf8, 0xff, 0x3f, 0xac, 0x1a, 0x00, 0x00, 0x00, 0x00, 0xff,
   0xff, 0x19, 0x00, 0x00, 0x00, 0x00, 0x00, 0x00, 0x80, 0xf8, 0xff, 0x1f,
   0x56, 0x1d, 0x00, 0x00, 0x00, 0x00, 0xff, 0xff, 0x19, 0x00, 0x00, 0x00,
   0x00, 0x00, 0x00, 0x80, 0xf8, 0xff, 0x1f, 0xaa, 0x1a, 0x00, 0x00, 0x00,
   0x00, 0xff, 0xff, 0x19, 0x00, 0x00, 0x00, 0x00, 0x00, 0x00, 0xc0, 0xf8,
   0xff, 0x1f, 0x57, 0x1d, 0x00, 0x00, 0x00, 0x00, 0xff, 0xff, 0x19, 0x00,
   0x00, 0x00, 0x00, 0x00, 0x00, 0xc0, 0xf8, 0xff, 0x1f, 0xab, 0x1a, 0x00,
   0x00, 0x00, 0x00, 0xff, 0xff, 0x19, 0x02, 0x00, 0x00, 0x00, 0x00, 0x00,
   0xc0, 0xf8, 0xff, 0xbf, 0x55, 0x1d, 0x00, 0x00, 0x00, 0x00, 0xff, 0xff,
   0x19, 0x0f, 0x00, 0x00, 0x00, 0x00, 0x00, 0xcc, 0xf8, 0xff, 0xff, 0xaa,
   0x1a, 0x00, 0x00, 0x00, 0x00, 0xff, 0xff, 0xd9, 0x0d, 0x00, 0x00, 0x00,
   0x00, 0x80, 0xcf, 0xf8, 0xff, 0x7f, 0x55, 0x15, 0x00, 0x00, 0x00, 0x00,
   0xff, 0xff, 0xd9, 0x0c, 0x00, 0x00, 0x00, 0x00, 0x80, 0xcd, 0xf8, 0xff,
   0xff, 0xaa, 0x1a, 0x00, 0x00, 0x00, 0x00, 0xff, 0xff, 0x59, 0x0e, 0x00,
   0x00, 0x07, 0x00, 0x00, 0xdf, 0xf8, 0xff, 0x7f, 0x55, 0x15, 0x00, 0x00,
   0x00, 0x00, 0xff, 0xff, 0xd9, 0x0f, 0x00, 0x00, 0x07, 0x00, 0x00, 0xd3,
   0xf8, 0xff, 0xbf, 0xaa, 0x1a, 0x00, 0x00, 0x00, 0x00, 0xff, 0xff, 0x19,
   0x0c, 0x00, 0x00, 0x07, 0x00, 0x00, 0xd0, 0xf8, 0xff, 0x5f, 0x55, 0x35,
   0x00, 0x00, 0xfc, 0x13, 0xff, 0xff, 0x19, 0x04, 0x00, 0x00, 0x00, 0x00,
   0x00, 0xd8, 0xf8, 0xff, 0xaf, 0xaa, 0x3a, 0x00, 0x00, 0xfc, 0xff, 0xff,
   0xff, 0x99, 0x07, 0x00, 0x00, 0x00, 0x00, 0x00, 0xdf, 0xf8, 0xff, 0x5f,
   0x55, 0x35, 0x00, 0x00, 0xac, 0xfa, 0xff, 0xff, 0x99, 0x03, 0x00, 0x00,
   0x00, 0x00, 0x00, 0xcf, 0xf8, 0xff, 0xaf, 0xaa, 0x3a, 0x00, 0x00, 0x5c,
   0x55, 0xff, 0xff, 0x19, 0x00, 0x00, 0x00, 0x00, 0x00, 0x00, 0xc0, 0xf8,
   0xff, 0x57, 0x55, 0x35, 0x00, 0x00, 0xa8, 0xaa, 0xfe, 0xff, 0x19, 0x00,
   0x00, 0x00, 0x00, 0x00, 0x00, 0xc0, 0xf8, 0xff, 0xab, 0xaa, 0x3a, 0x00,
   0x00, 0x58, 0x55, 0xf5, 0xff, 0x19, 0x00, 0x00, 0x00, 0x00, 0x00, 0x00,
   0xc0, 0xf8, 0xff, 0x55, 0x55, 0x35, 0x00, 0x00, 0xb8, 0xaa, 0xea, 0xff,
   0x19, 0x00, 0x00, 0x00, 0x00, 0x00, 0x00, 0xc0, 0xf8, 0xff, 0xaa, 0xaa,
   0x3a, 0x00, 0x00, 0x58, 0x55, 0x55, 0xff, 0x19, 0x00, 0x00, 0x00, 0x00,
   0x00, 0x00, 0xc0, 0xf8, 0x7f, 0x55, 0x55, 0x35, 0x00, 0x00, 0xb0, 0xaa,
   0xaa, 0xfe, 0x19, 0x00, 0x00, 0x00, 0x00, 0x00, 0x00, 0xc0, 0xf8, 0xbf,
   0xaa, 0xaa, 0x3a, 0x00, 0x00, 0x70, 0x55, 0x55, 0xf5, 0x19, 0x00, 0x00,
   0x00, 0x00, 0x00, 0x00, 0xc0, 0xfc, 0x7f, 0x55, 0x55, 0x35, 0x00, 0x00,
   0xb0, 0xaa, 0xaa, 0xea, 0x19, 0x00, 0x00, 0x00, 0x00, 0x00, 0x00, 0xc0,
   0xfc, 0xbf, 0xaa, 0xaa, 0x3a, 0x00, 0x00, 0x70, 0x55, 0x55, 0xd5, 0x1f,
   0x00, 0x00, 0x00, 0x00, 0x00, 0x00, 0xc0, 0xfc, 0x5f, 0x55, 0x55, 0x15,
   0x00, 0x00, 0xa0, 0xaa, 0xaa, 0xaa, 0x1e, 0x1e, 0x00, 0x00, 0x00, 0x00,
   0x00, 0xc5, 0xfc, 0xaf, 0xaa, 0xaa, 0x1a, 0x00, 0x00, 0x60, 0x55, 0x55,
   0x55, 0xbd, 0x1b, 0x00, 0x00, 0x00, 0x00, 0x80, 0xc5, 0xfc, 0x57, 0x55,
   0x55, 0x15, 0x00, 0x00, 0xe0, 0xaa, 0xaa, 0xaa, 0xfa, 0x18, 0x00, 0x00,
   0x00, 0x00, 0x80, 0xc5, 0xfc, 0xab, 0xaa, 0xaa, 0x1a, 0x00, 0x00, 0x40,
   0x55, 0x55, 0x55, 0xd5, 0x19, 0x00, 0x00, 0x00, 0x00, 0x80, 0xce, 0xfc,
   0x55, 0x55, 0x55, 0x15, 0x00, 0x00, 0xc0, 0xaa, 0xaa, 0xaa, 0xaa, 0x1f,
   0x00, 0x00, 0x00, 0x00, 0xc0, 0xdf, 0xfc, 0xaa, 0xaa, 0xaa, 0x1a, 0x00,
   0x00, 0xc0, 0x55, 0x55, 0x55, 0x55, 0x3f, 0x00, 0x00, 0x00, 0x00, 0xe0,
   0xc7, 0xfc, 0x55, 0x55, 0x55, 0x1d, 0x00, 0x00, 0x80, 0xaa, 0xaa, 0xaa,
   0xaa, 0x3a, 0x00, 0x00, 0x00, 0x00, 0x60, 0xe6, 0xfc, 0xaa, 0xaa, 0xaa,
   0x1a, 0x00, 0x00, 0x80, 0x55, 0x55, 0x55, 0x55, 0x75, 0x00, 0x00, 0x00,
   0x00, 0x00, 0x66, 0x7c, 0x55, 0x55, 0x55, 0x1d, 0x00, 0x00, 0x80, 0xab,
   0xaa, 0xaa, 0xaa, 0xea, 0x00, 0x00, 0x00, 0x00, 0x00, 0x66, 0xbe, 0xaa,
   0xaa, 0xaa, 0x1a, 0x00, 0x00, 0x00, 0x55, 0x55, 0x55, 0x55, 0xd5, 0x01,
   0x00, 0x00, 0x00, 0x00, 0x60, 0x5e, 0x55, 0x55, 0x55, 0x1d, 0x00, 0x00,
   0x00, 0xab, 0xaa, 0xaa, 0xaa, 0xaa, 0x03, 0x00, 0x00, 0x00, 0x00, 0x20,
   0xae, 0xaa, 0xaa, 0xaa, 0x0a, 0x00, 0x00, 0x00, 0x57, 0x55, 0x55, 0x55,
   0x55, 0x0f, 0x00, 0x00, 0x00, 0x00, 0x30, 0x56, 0x55, 0x55, 0x55, 0x0d,
   0x00, 0x00, 0x00, 0xae, 0xaa, 0xaa, 0xaa, 0xaa, 0x1e, 0x00, 0x00, 0x00,
   0x00, 0x10, 0xab, 0xaa, 0xaa, 0xaa, 0x0a, 0x00, 0x00, 0x00, 0x56, 0x55,
   0x55, 0x55, 0x55, 0x3d, 0x00, 0x00, 0x00, 0x00, 0x98, 0x55, 0x55, 0x55,
   0x55, 0x0d, 0x00, 0x00, 0x00, 0xac, 0xaa, 0xaa, 0xaa, 0xaa, 0x6a, 0x00,
   0x00, 0x00, 0x04, 0xcc, 0xaa, 0xaa, 0xaa, 0xaa, 0x0e, 0x00, 0x00, 0x00,
   0x5c, 0x55, 0x55, 0x55, 0x55, 0xd5, 0x00, 0x00, 0xf0, 0x07, 0x5c, 0x55,
   0x55, 0x55, 0x55, 0x0d, 0x00, 0x00, 0x00, 0xa8, 0xaa, 0xaa, 0xaa, 0xaa,
   0xaa, 0x01, 0x00, 0xe0, 0x01, 0xf6, 0xaa, 0xaa, 0xaa, 0xaa, 0x0e, 0x00,
   0x00, 0x00, 0x58, 0x55, 0x55, 0x55, 0x55, 0x55, 0x03, 0x00, 0xe0, 0x07,
   0x73, 0x55, 0x55, 0x55, 0x55, 0x0d, 0x00, 0x00, 0x00, 0xb8, 0xaa, 0xaa,
   0xaa, 0xaa, 0xaa, 0x0e, 0x00, 0x60, 0x8c, 0xb9, 0xaa, 0xaa, 0xaa, 0xaa,
   0x06, 0x00, 0x00, 0x00, 0x70, 0x55, 0x55, 0x55, 0x55, 0x55, 0x1d, 0x1e,
   0x00, 0xcc, 0x5c, 0x55, 0x55, 0x55, 0x55, 0x05, 0x00, 0x00, 0x00, 0xb0,
   0xaa, 0xaa, 0xaa, 0xaa, 0xaa, 0x3a, 0x1f, 0x40, 0x66, 0xae, 0xaa, 0xaa,
   0xaa, 0xaa, 0x06, 0x00, 0x00, 0x00, 0x60, 0x55, 0x55, 0x55, 0x55, 0x55,
   0x75, 0x1b, 0xc0, 0x33, 0x57, 0x55, 0x55, 0x55, 0x55, 0x07, 0x00, 0x00,
   0x00, 0xe0, 0xaa, 0xaa, 0xaa, 0xaa, 0xaa, 0xea, 0x01, 0xc0, 0x98, 0xab,
   0xaa, 0xaa, 0xaa, 0xaa, 0x06, 0x00, 0x00, 0x00, 0xc0, 0x55, 0x55, 0x55,
   0x55, 0x55, 0xd5, 0x1f, 0x00, 0xce, 0x55, 0x55, 0x55, 0x55, 0x55, 0x07,
   0x00, 0x00, 0x00, 0xc0, 0xaa, 0xaa, 0xaa, 0xaa, 0xaa, 0xaa, 0x3f, 0x00,
   0xf7, 0xaa, 0xaa, 0xaa, 0xaa, 0xaa, 0x06, 0x00, 0x00, 0x00, 0x80, 0x55,
   0x55, 0x55, 0x55, 0x55, 0xd5, 0x27, 0xc0, 0x71, 0x55, 0x55, 0x55, 0x55,
   0x55, 0x03, 0x00, 0x00, 0x00, 0x80, 0xab, 0xaa, 0xaa, 0xaa, 0xaa, 0xaa,
   0x2f, 0xf0, 0xb8, 0xaa, 0xaa, 0xaa, 0xaa, 0xaa, 0x03, 0x00, 0x00, 0x00,
   0x00, 0x57, 0x55, 0x55, 0x55, 0x55, 0x55, 0x3f, 0x3c, 0x5c, 0x55, 0x55,
   0x55, 0x55, 0x55, 0x03, 0x00, 0x00, 0x00, 0x00, 0xab, 0xaa, 0xaa, 0xaa,
   0xaa, 0xaa, 0xbf, 0x0f, 0xaf, 0xaa, 0xaa, 0xaa, 0xaa, 0xaa, 0x03, 0x00,
   0x00, 0x00, 0x00, 0x57, 0x55, 0x55, 0x55, 0x55, 0x55, 0xff, 0x01, 0x5f,
   0x55, 0x55, 0x55, 0x55, 0x55, 0x03, 0x00, 0x00, 0x00, 0x00, 0xaf, 0xaa,
   0xaa, 0xaa, 0xaa, 0xaa, 0x6e, 0x80, 0xb1, 0xaa, 0xaa, 0xaa, 0xaa, 0xaa,
   0x01, 0x00, 0x00, 0x00, 0x00, 0x5f, 0x55, 0x55, 0x55, 0x55, 0x55, 0xdd,
   0xe0, 0x60, 0x55, 0x55, 0x55, 0x55, 0xd5, 0x01, 0x00, 0x00, 0x00, 0x00,
   0xbf, 0xaa, 0xaa, 0xaa, 0xaa, 0xaa, 0x9a, 0x79, 0xc0, 0xaa, 0xaa, 0xaa,
   0xaa, 0xaa, 0x01, 0x00, 0x00, 0x00, 0x00, 0x5f, 0x55, 0x55, 0x55, 0x55,
   0x55, 0x35, 0x3f, 0x80, 0x55, 0x55, 0x55, 0x55, 0xd5, 0x00, 0x00, 0x00,
   0x00, 0x00, 0xbf, 0xaa, 0xaa, 0xaa, 0xaa, 0xae, 0x3a, 0x1f, 0x80, 0xab,
   0xaa, 0xaa, 0xaa, 0xea, 0x00, 0x00, 0x00, 0x00, 0x00, 0x7f, 0x55, 0x55,
   0x55, 0xf5, 0xff, 0x75, 0x07, 0x00, 0x57, 0x55, 0x55, 0x55, 0xd5, 0x00,
   0x00, 0x00, 0x00, 0x00, 0xff, 0xaa, 0xaa, 0xaa, 0xfa, 0xe0, 0xef, 0x03,
   0x00, 0xab, 0xaa, 0xaa, 0xaa, 0xea, 0x00, 0x00, 0x00, 0x00, 0x00, 0xff,
   0x55, 0x55, 0x55, 0x3d, 0x00, 0xfe, 0x00, 0x00, 0x56, 0x55, 0x55, 0x55,
   0x75, 0x00, 0x00, 0x00, 0x00, 0x00, 0xff, 0xaa, 0xaa, 0xaa, 0x1a, 0x00,
   0x38, 0x00, 0x00, 0xaa, 0xaa, 0xaa, 0xaa, 0x6a, 0x00, 0x00, 0x00, 0x00,
   0x00, 0xff, 0x55, 0x55, 0x55, 0x0d, 0x00, 0x38, 0x00, 0x00, 0x56, 0x55,
   0x55, 0x55, 0x35, 0x00, 0x00, 0x00, 0x00, 0x00, 0xff, 0xab, 0xaa, 0xaa,
   0x0e, 0x00, 0x30, 0x00, 0x00, 0xab, 0xaa, 0xaa, 0xaa, 0x3a, 0x00, 0x00,
   0x00, 0x00, 0x00, 0xff, 0x57, 0x55, 0x55, 0x0d, 0x00, 0x30, 0x00, 0x80,
   0x57, 0x55, 0x55, 0x55, 0x35, 0x00, 0x00, 0x00, 0x00, 0x00, 0xff, 0xaf,
   0xaa, 0xaa, 0x0e, 0x00, 0x70, 0x00, 0x80, 0xab, 0xaa, 0xaa, 0xaa, 0x1a,
   0x00, 0x00, 0x00, 0x00, 0x00, 0xff, 0x5f, 0x55, 0x55, 0x0d, 0x00, 0xe0,
   0x00, 0xc0, 0x55, 0x55, 0x55, 0x55, 0x15, 0x00, 0x00, 0x00, 0x00, 0x00,
   0xff, 0xaf, 0xaa, 0xaa, 0x0e, 0x00, 0xe0, 0x00, 0x80, 0xab, 0xaa, 0xaa,
   0xaa, 0x1a, 0x00, 0x00, 0x00, 0x00, 0x00, 0xfe, 0x5f, 0x55, 0x55, 0x0d,
   0x00, 0xc0, 0x01, 0x00, 0x57, 0x55, 0x55, 0x55, 0x0d, 0x00, 0x00, 0x00,
   0x00, 0x00, 0xfc, 0xbf, 0xaa, 0xaa, 0x0e, 0x00, 0x80, 0x03, 0x00, 0xae,
   0xaa, 0xaa, 0xaa, 0x0e, 0x00, 0x00, 0x00, 0x00, 0x00, 0xe0, 0x7f, 0x55,
   0x55, 0x0d, 0x00, 0x00, 0x07, 0x00, 0x5c, 0x55, 0x55, 0x55, 0x05, 0x00,
   0x00, 0x00, 0x00, 0x00, 0x00, 0xef, 0xaa, 0xaa, 0x0a, 0x00, 0x00, 0x0e,
   0x00, 0xb8, 0xaa, 0xaa, 0xaa, 0x06, 0x00, 0x00, 0x00, 0x00, 0x00, 0x00,
   0xc0, 0x55, 0x55, 0x0d, 0x00, 0x00, 0x18, 0x00, 0x60, 0x55, 0x55, 0x55,
   0x07, 0x00, 0x00, 0x00, 0x00, 0x00, 0x00, 0x80, 0xab, 0xaa, 0x1a, 0x00,
   0x00, 0x70, 0x00, 0xc0, 0xab, 0xaa, 0xaa, 0x02, 0x00, 0x00, 0x00, 0x00,
   0x00, 0x00, 0x00, 0x57, 0x55, 0x1d, 0x00, 0x00, 0xe0, 0x00, 0x00, 0x57,
   0x55, 0x55, 0x03, 0x00, 0x00, 0x00, 0x00, 0x00, 0x00, 0x00, 0xaf, 0xaa,
   0x1a, 0x00, 0x00, 0xc0, 0x03, 0x00, 0xbc, 0xaa, 0xaa, 0x01, 0x00, 0x00,
   0x00, 0x00, 0x00, 0x00, 0x00, 0x5e, 0x55, 0x15, 0x00, 0x00, 0x80, 0x07,
   0x00, 0xe0, 0x57, 0x55, 0x01, 0x00, 0x00, 0x00, 0x00, 0x00, 0x00, 0x00,
   0xac, 0xaa, 0x3a, 0x00, 0x00, 0x80, 0x0e, 0x00, 0x00, 0xff, 0xff, 0x00,
   0x00, 0x00, 0x00, 0x00, 0x00, 0x00, 0x00, 0x58, 0x55, 0x35, 0x00, 0x00,
   0x80, 0x7c, 0x00, 0x00, 0x00, 0x80, 0x00, 0x00, 0x00, 0x00, 0x00, 0x00,
   0x00, 0x00, 0xf0, 0xaa, 0x2a, 0x00, 0x00, 0xc0, 0xf0, 0x00, 0x00, 0x00,
   0xc0, 0x00, 0x00, 0x00, 0x00, 0x00, 0x00, 0x00, 0x00, 0xe0, 0x55, 0x75,
   0x00, 0x00, 0xc0, 0xe0, 0x07, 0x00, 0x00, 0x40, 0x00, 0x00, 0x00, 0x00,
   0x00, 0x00, 0x00, 0x00, 0xc0, 0xaf, 0x6a, 0x00, 0x00, 0xc0, 0x80, 0x07,
   0x00, 0x00, 0x60, 0x00, 0x00, 0x00, 0x00, 0x00, 0x00, 0x00, 0x00, 0x80,
   0x7f, 0xd5, 0x00, 0x00, 0x60, 0x00, 0x7e, 0x00, 0x00, 0x30, 0x00, 0x00,
   0x00, 0x00, 0x00, 0x00, 0x00, 0x00, 0x00, 0xf3, 0xef, 0x00, 0x00, 0x70,
   0x00, 0xe0, 0x03, 0x00, 0x18, 0x00, 0x00, 0x00, 0x00, 0x00, 0x00, 0x00,
   0x00, 0x00, 0x8e, 0xff, 0x03, 0x00, 0x38, 0x00, 0x00, 0x1f, 0x00, 0x0c,
   0x00, 0x00, 0x00, 0x00, 0x00, 0x00, 0x00, 0x00, 0x00, 0x3c, 0xc0, 0x03,
   0x00, 0x1e, 0x00, 0x00, 0xf0, 0x01, 0x06, 0x00, 0x00, 0x00, 0x00, 0x00,
   0x00, 0x00, 0x00, 0x00, 0x78, 0x00, 0x00, 0xc0, 0x07, 0x00, 0x00, 0x80,
   0x1f, 0x03, 0x00, 0x00, 0x00, 0x00, 0x00, 0x00, 0x00, 0x00, 0x00, 0xe0,
   0x01, 0x00, 0xf8, 0x00, 0x00, 0x00, 0x00, 0xf8, 0x01, 0x00, 0x00, 0x00,
   0x00, 0x00, 0x00, 0x00, 0x00, 0x00, 0x00, 0x07, 0x80, 0x1f, 0x00, 0x00,
   0x00, 0x00, 0x00, 0x00, 0x00, 0x00, 0x00, 0x00, 0x00, 0x00, 0x00, 0x00,
   0x00, 0x00, 0x9f, 0xff, 0x01, 0x00, 0x00, 0x00, 0x00, 0x00, 0x00, 0x00,
   0x00, 0x00, 0x00, 0x00, 0x00, 0x00, 0x00, 0x00, 0x00, 0xfc, 0x0f, 0x00,
   0x00, 0x00, 0x00, 0x00, 0x00, 0x00, 0x00, 0x00, 0x00, 0x00, 0x00, 0x00,
   0x00, 0x00, 0x00, 0x00, 0x00, 0x00, 0x00, 0x00, 0x00, 0x00, 0x00, 0x00,
   0x00, 0x00, 0x00, 0x00, 0x00, 0x00, 0x00, 0x00, 0x00, 0x00, 0x00, 0x00,
   0x00, 0x00, 0x00, 0x00, 0x00, 0x00, 0x00, 0x00, 0x00, 0x00, 0x00, 0x00,
   0x00, 0x00, 0x00, 0x00, 0x00, 0x00, 0x00, 0x00, 0x00, 0x00, 0x00, 0x00,
   0x00, 0x00, 0x00, 0x00, 0x00, 0x00, 0x00, 0x00, 0x00, 0x00, 0x00, 0x00,
   0x00, 0x00, 0x00, 0x00, 0x00, 0x00, 0x00, 0x00, 0x00, 0x00, 0x00, 0x00,
   0x00, 0x00, 0x00, 0x00, 0x00, 0x00, 0x00, 0x00, 0x00, 0x00, 0x00, 0x00,
   0x00, 0x00, 0x00, 0x00, 0x00, 0x00, 0x00, 0x00, 0x00, 0x00, 0x00, 0x00,
   0x00, 0x00, 0x00, 0x00, 0x00, 0x00, 0x00, 0x00, 0x00, 0x00, 0x00, 0x00,
   0x00, 0x00, 0x00, 0x00, 0x00, 0x00, 0x00, 0x00, 0x00, 0x00, 0x00, 0x00,
   0x00, 0x00, 0x00, 0x00, 0x00, 0x00, 0x00, 0x00, 0x00, 0x00, 0x00, 0x00,
   0x00, 0x00, 0x00, 0x00, 0x00, 0x00, 0x00, 0x00, 0x00, 0x00, 0x00, 0x00,
   0x00, 0x00, 0x00, 0x00, 0x00, 0x00, 0x00, 0x00, 0x00, 0x00, 0x00, 0x00,
   0x00, 0x00, 0x00, 0x00, 0x00, 0x00, 0x00, 0x00, 0x00, 0x00, 0x00, 0x00,
   0x00, 0x00, 0x00, 0x00, 0x00, 0x00, 0x00, 0x00, 0x00, 0x00, 0x00, 0x00,
   0x00, 0x00, 0x00, 0x00, 0x00, 0x00, 0x00, 0x00, 0x00, 0x00, 0x00, 0x00,
   0x00, 0x00, 0x00, 0x00, 0x00, 0x00, 0x00, 0x00, 0x00, 0x00, 0x00, 0x00,
   0x00, 0x00, 0x00, 0x00, 0x00, 0x00, 0x00, 0x00, 0x00, 0x00, 0x00, 0x00,
   0x00, 0x00, 0x00, 0x00, 0x00, 0x00, 0x00, 0x00, 0x00, 0x00, 0x00, 0x00,
   0x00, 0x00, 0x00, 0x00, 0x00, 0x00, 0x00, 0x00, 0x00, 0x00, 0x00, 0x00,
   0x00, 0x00, 0x00, 0x00, 0x00, 0x00, 0x00, 0x00, 0x00, 0x00, 0x00, 0x00,
   0x00, 0x00, 0x00, 0x00, 0x00, 0x00, 0x00, 0x00, 0x00, 0x00, 0x00, 0x00,
   0x00, 0x00, 0x00, 0x00, 0x00, 0x00, 0x00, 0x00, 0x00, 0x00, 0x00, 0x00,
   0x00, 0x00, 0x00, 0x00, 0x00, 0x00, 0x00, 0x00, 0x00, 0x00, 0x00, 0x00,
   0x00, 0x00, 0x00, 0x00, 0x00, 0x00, 0x00, 0x00, 0x00, 0x00, 0x00, 0x00,
   0x00, 0x00, 0x00, 0x00, 0x00, 0x00, 0x00, 0x00, 0x00, 0x00, 0x00, 0x00,
   0x00, 0x00, 0x00, 0x00, 0x00, 0x00, 0x00, 0x00, 0x00, 0x00, 0x00, 0x00,
   0x00, 0x00, 0x00, 0x00, 0x00, 0x00, 0x00, 0x00, 0x00, 0x00, 0x00, 0x00,
   0x00, 0x00, 0x00, 0x00, 0x00, 0x00, 0x00, 0x00, 0x00, 0x00, 0x00, 0x00,
   0x00, 0x00, 0x00, 0x00, 0x00, 0x00, 0x00, 0x00, 0x00, 0x00, 0x00, 0x00,
   0x00, 0x00, 0x00, 0x00, 0x00, 0x00, 0x00, 0x00, 0x00, 0x00, 0x00, 0x00,
   0x00, 0x00, 0x00, 0x00, 0x00, 0x00, 0x00, 0x00, 0x00, 0x00, 0x00, 0x00,
   0x00, 0x00, 0x00, 0x00, 0x00, 0x00, 0x00, 0x00, 0x00, 0x00, 0x00, 0x00,
   0x00, 0x00, 0x00, 0x00, 0x00, 0x00, 0x00, 0x00, 0x00, 0x00, 0x00, 0x00,
   0x00, 0x00, 0x00, 0x00, 0x00, 0x00, 0x00, 0x00, 0x00, 0x00, 0x00, 0x00,
   0x00, 0x00, 0x00, 0x00, 0x00, 0x00, 0x00, 0x00, 0x00, 0x00, 0x00, 0x00,
   0x00, 0x00, 0x00, 0x00, 0x00, 0x00, 0x00, 0x00, 0x00, 0x00, 0x00, 0x00,
   0x00, 0x00, 0x00, 0x00, 0x00, 0x00, 0x00, 0x00, 0x00, 0x00, 0x00, 0x00,
   0x00, 0x00, 0x00, 0x00, 0x00, 0x00, 0x00, 0x00, 0x00, 0x00, 0x00, 0x00,
   0x00, 0x00, 0x00, 0x00, 0x00, 0x00, 0x00, 0x00, 0x00, 0x00, 0x00, 0x00,
   0x00, 0x00, 0x00, 0x00, 0x00, 0x00, 0x00, 0x00, 0x00, 0x00, 0x00, 0x00,
   0x00, 0x00, 0x00, 0x00, 0x00, 0x00, 0x00, 0x00, 0x00, 0x00, 0x00, 0x00,
   0x00, 0x00, 0x00, 0x00, 0x00, 0x00, 0x00, 0x00, 0x00, 0x00, 0x00, 0x00,
   0x00, 0x00, 0x00, 0x00, 0x00, 0x00, 0x00, 0x00, 0x00, 0x00, 0x00, 0x00,
   0x00, 0x00, 0x00, 0x00, 0x00, 0x00, 0x00, 0x00, 0x00, 0x00, 0x00, 0x00,
   0x00, 0x00, 0x00, 0x00, 0x00, 0x00, 0x00, 0x00, 0x00, 0x00, 0x00, 0x00,
   0x00, 0x00, 0x00, 0x00, 0x00, 0x00, 0x00, 0x00, 0x00, 0x00, 0x00, 0x00,
   0x00, 0x00, 0x00, 0x00, 0x00, 0x00, 0x00, 0x00, 0x00, 0x00, 0x00, 0x00,
   0x00, 0x00, 0x00, 0x00, 0x00, 0x00, 0x00, 0x00, 0x00, 0x00, 0x00, 0x00,
   0x00, 0x00, 0x00, 0x00, 0x00, 0x00, 0x00, 0x00, 0x00, 0x00, 0x00, 0x00,
   0x00, 0x00, 0x00, 0x00, 0x00, 0x00, 0x00, 0x00, 0x00, 0x00, 0x00, 0x00,
   0x00, 0x00, 0x00, 0x00, 0x00, 0x00, 0x00, 0x00, 0x00, 0x00, 0x00, 0x00,
   0x00, 0x00, 0x00, 0x00, 0x00, 0x00, 0x00, 0x00, 0x00, 0x00, 0x00, 0x00,
   0x00, 0x00, 0x00, 0x00, 0x00, 0x00, 0x00, 0x00, 0x00, 0x00, 0x00, 0x00,
   0x00, 0x00, 0x00, 0x00, 0x00, 0x00, 0x00, 0x00, 0x00, 0x00, 0x00, 0x00,
   0x00, 0x00, 0x00, 0x00, 0x00, 0x00, 0x00, 0x00, 0x00, 0x00, 0x00, 0x00,
   0x00, 0x00, 0x00, 0x00, 0x00, 0x00, 0x00, 0x00, 0x00, 0x00, 0x00, 0x00,
   0x00, 0x00, 0x00, 0x00, 0x00, 0x00, 0x00, 0x00, 0x00, 0x00, 0x00, 0x00,
   0x00, 0x00, 0x00, 0x00, 0x00, 0x00, 0x00, 0x00, 0x00, 0x00, 0x00, 0x00,
   0x00, 0x00, 0x00, 0x00, 0x00, 0x00, 0x00, 0x00, 0x00, 0x00, 0x00, 0x00,
   0x00, 0x00, 0x00, 0x00, 0x00, 0x00, 0x00, 0x00, 0x00, 0x00, 0x00, 0x00,
   0x00, 0x00, 0x00, 0x00, 0x00, 0x00, 0x00, 0x00, 0x00, 0x00, 0x00, 0x00,
   0x00, 0x00, 0x00, 0x00, 0x00, 0x00, 0x00, 0x00, 0x00, 0x00, 0x00, 0x00,
   0x00, 0x00, 0x00, 0x00, 0x00, 0x00, 0x00, 0x00, 0x00, 0x00, 0x00, 0x00,
   0x00, 0x00, 0x00, 0x00, 0x00, 0x00, 0x00, 0x00, 0x00, 0x00, 0x00, 0x00,
   0x00, 0x00, 0x00, 0x00, 0x00, 0x00, 0x00, 0x00, 0x00, 0x00, 0x00, 0x00,
   0x00, 0x00, 0x00, 0x00, 0x00, 0x00, 0x00, 0x00, 0x00, 0x00, 0x00, 0x00,
   0x00, 0x00, 0x00, 0x00, 0x00, 0x00, 0x00, 0x00, 0x00, 0x00, 0x00, 0x00,
   0x00, 0x00, 0x00, 0x00, 0x00, 0x00, 0x00, 0x00, 0x00, 0x00, 0x00, 0x00,
   0x00, 0x00, 0x00, 0x00, 0x00, 0x00, 0x00, 0x00, 0x00, 0x00, 0x00, 0x00,
   0x00, 0x00, 0x00, 0x00, 0x00, 0x00, 0x00, 0x00, 0x00, 0x00, 0x00, 0x00,
   0x00, 0x00, 0x00, 0x00, 0x00, 0x00, 0x00, 0x00, 0x00, 0x00, 0x00, 0x00,
   0x00, 0x00, 0x00, 0x00, 0x00, 0x00, 0x00, 0x00, 0x00, 0x00, 0x00, 0x00,
   0x00, 0x00, 0x00, 0x00, 0x00, 0x00, 0x00, 0x00, 0x00, 0x00, 0x00, 0x00,
   0x00, 0x00, 0x00, 0x00, 0x00, 0x00, 0x00, 0x00, 0x00, 0x00, 0x00, 0x00,
   0x00, 0x00, 0x00, 0x00, 0x00, 0x00, 0x00, 0x00, 0x00, 0x00, 0x00, 0x00,
   0x00, 0x00, 0x00, 0x00, 0x00, 0x00, 0x00, 0x00, 0x00, 0x00, 0x00, 0x00,
   0x00, 0x00, 0x00, 0x00, 0x00, 0x00, 0x00, 0x00, 0x00, 0x00, 0x00, 0x00,
   0x00, 0x00, 0x00, 0x00, 0x00, 0x00, 0x00, 0x00, 0x00, 0x00, 0x00, 0x00,
   0x00, 0x00, 0x00, 0x00, 0x00, 0x00, 0x00, 0x00, 0x00, 0x00, 0x00, 0x00,
   0x00, 0x00, 0x00, 0x00, 0x00, 0x00, 0x00, 0x00, 0x00, 0x00, 0x00, 0x00,
   0x00, 0x00, 0x00, 0x00, 0x00, 0x00, 0x00, 0x00, 0x00, 0x00, 0x00, 0x00,
   0x00, 0x00, 0x00, 0x00, 0x00, 0x00, 0x00, 0x00, 0x00, 0x00, 0x00, 0x00,
   0x00, 0x00, 0x00, 0x00, 0x00, 0x00, 0x00, 0x00, 0x00, 0x00, 0x00, 0x00,
   0x00, 0x00, 0x00, 0x00, 0x00, 0x00, 0x00, 0x00, 0x00, 0x00, 0x00, 0x00,
   0x00, 0x00, 0x00, 0x00, 0x00, 0x00, 0x00, 0x00, 0x00, 0x00, 0x00, 0x00,
   0x00, 0x00, 0x00, 0x00, 0x00, 0x00, 0x00, 0x00, 0x00, 0x00, 0x00, 0x00,
   0x00, 0x00, 0x00, 0x00, 0x00, 0x00, 0x00, 0x00, 0x00, 0x00, 0x00, 0x00,
   0x00, 0x00, 0x00, 0x00, 0x00, 0x00, 0x00, 0x00, 0x00, 0x00, 0x00, 0x00,
   0x00, 0x00, 0x00, 0x00, 0x00, 0x00, 0x00, 0x00, 0x00, 0x00, 0x00, 0x00,
   0x00, 0x00, 0x00, 0x00, 0x00, 0x00, 0x00, 0x00, 0x00, 0x00, 0x00, 0x00,
   0x00, 0x00, 0x00, 0x00, 0x00, 0x00, 0x00, 0x00, 0x00, 0x00, 0x00, 0x00,
   0x00, 0x00, 0x00, 0x00, 0x00, 0x00, 0x00, 0x00, 0x00, 0x00, 0x00, 0x00,
   0x00, 0x00, 0x00, 0x00, 0x00, 0x00, 0x00, 0x00, 0x00, 0x00, 0x00, 0x00,
   0x00, 0x00, 0x00, 0x00, 0x00, 0x00, 0x00, 0x00, 0x00, 0x00, 0x00, 0x00,
   0x00, 0x00, 0x00, 0x00, 0x00, 0x00, 0x00, 0x00, 0x00, 0x00, 0x00, 0x00,
   0x00, 0x00, 0x00, 0x00, 0x00, 0x00, 0x00, 0x00, 0x00, 0x00, 0x00, 0x00,
   0x00, 0x00, 0x00, 0x00, 0x00, 0x00, 0x00, 0x00, 0x00, 0x00, 0x00, 0x00,
   0x00, 0x00, 0x00, 0x00, 0x00, 0x00, 0x00, 0x00, 0x00, 0x00, 0x00, 0x00,
   0x00, 0x00, 0x00, 0x00, 0x00, 0x00, 0x00, 0x00, 0x00, 0x00, 0x00, 0x00,
   0x00, 0x00, 0x00, 0x00, 0x00, 0x00, 0x00, 0x00, 0x00, 0x00, 0x00, 0x00,
   0x00, 0x00, 0x00, 0x00, 0x00, 0x00, 0x00, 0x00, 0x00, 0x00, 0x00, 0x00,
   0x00, 0x00, 0x00, 0x00, 0x00, 0x00, 0x00, 0x00, 0x00, 0x00, 0x00, 0x00,
   0x00, 0x00, 0x00, 0x00, 0x00, 0x00, 0x00, 0x00, 0x00, 0x00, 0x00, 0x00,
   0x00, 0x00, 0x00, 0x00, 0x00, 0x00, 0x00, 0x00, 0x00, 0x00, 0x00, 0x00,
   0x00, 0x00, 0x00, 0x00, 0x00, 0x00, 0x00, 0x00, 0x00, 0x00, 0x00, 0x00,
   0x00, 0x00, 0x00, 0x00, 0x00, 0x00, 0x00, 0x00, 0x00, 0x00, 0x00, 0x00,
   0x00, 0x00, 0x00, 0x00, 0x00, 0x00, 0x00, 0x00, 0x00, 0x00, 0x00, 0x00,
   0x00, 0x00, 0x00, 0x00, 0x00, 0x00, 0x00, 0x00, 0x00, 0x00, 0x00, 0x00 };
