#define catwhite_width 150
#define catwhite_height 300
#define catwhite_x_hot 1
#define catwhite_y_hot 1
static unsigned char catwhite_bits[] = {
   0x00, 0x00, 0x00, 0x00, 0x00, 0x00, 0x00, 0x00, 0x00, 0x00, 0x00, 0x00,
   0x00, 0x00, 0x00, 0x00, 0x00, 0x00, 0x00, 0x00, 0x00, 0x00, 0x00, 0x00,
   0x00, 0x00, 0x00, 0x00, 0x00, 0x00, 0x00, 0x00, 0x00, 0x00, 0x00, 0x00,
   0x00, 0x00, 0x00, 0x00, 0x00, 0x00, 0x00, 0x00, 0x00, 0x00, 0x00, 0x00,
   0x00, 0x00, 0x00, 0x00, 0x00, 0x00, 0x00, 0x00, 0x00, 0x00, 0x00, 0x00,
   0x00, 0x00, 0x00, 0x00, 0x00, 0x00, 0x00, 0x00, 0x00, 0x00, 0x00, 0x00,
   0x00, 0x00, 0x00, 0x00, 0x00, 0x00, 0x00, 0x00, 0x00, 0x00, 0x00, 0x00,
   0x00, 0x00, 0x00, 0x00, 0x00, 0x00, 0x00, 0x00, 0x00, 0x00, 0x00, 0x00,
   0x00, 0x00, 0x00, 0x00, 0x00, 0x00, 0x00, 0x00, 0x00, 0x00, 0x00, 0x00,
   0x00, 0x00, 0x00, 0x00, 0x00, 0x00, 0x00, 0x00, 0x00, 0x00, 0x00, 0x00,
   0x00, 0x00, 0x00, 0x00, 0x00, 0x00, 0x00, 0x00, 0x00, 0x00, 0x00, 0x00,
   0x00, 0x00, 0x00, 0x00, 0x00, 0x00, 0x00, 0x00, 0x00, 0x00, 0x00, 0x00,
   0x00, 0x00, 0x00, 0x00, 0x00, 0x00, 0x00, 0x00, 0x00, 0x00, 0x00, 0x00,
   0x00, 0x00, 0x00, 0x00, 0x00, 0x00, 0x00, 0x00, 0x00, 0x00, 0x00, 0x02,
   0x00, 0x00, 0x00, 0x00, 0x00, 0x00, 0x00, 0x04, 0x00, 0x00, 0x00, 0x00,
   0x00, 0x00, 0x00, 0x00, 0x00, 0x00, 0x01, 0x00, 0x00, 0x00, 0x00, 0x00,
   0x00, 0x00, 0x00, 0x00, 0x00, 0x00, 0x00, 0x00, 0x00, 0x00, 0x00, 0x00,
   0x80, 0x01, 0x00, 0x00, 0x00, 0x00, 0x00, 0x00, 0x00, 0x28, 0x00, 0x00,
   0x00, 0x00, 0x00, 0x00, 0x00, 0x00, 0x00, 0xe4, 0x01, 0x00, 0x00, 0x00,
   0x00, 0x00, 0x00, 0x00, 0x50, 0x00, 0x00, 0x00, 0x00, 0x00, 0x00, 0x00,
   0x00, 0x00, 0xf9, 0x00, 0x00, 0x00, 0x00, 0x00, 0x00, 0x00, 0x00, 0xa4,
   0x02, 0x00, 0x00, 0x00, 0x00, 0x00, 0x00, 0x00, 0xa0, 0xfc, 0x00, 0x00,
   0x00, 0x00, 0x00, 0x00, 0x00, 0x00, 0x48, 0x05, 0x00, 0x00, 0x00, 0x00,
   0x00, 0x00, 0x00, 0x50, 0xfe, 0x00, 0x00, 0x00, 0x00, 0x00, 0x00, 0x00,
   0x00, 0x98, 0x2a, 0x00, 0x00, 0x00, 0x00, 0x00, 0x00, 0x00, 0x2a, 0x7f,
   0x00, 0x00, 0x00, 0x00, 0x00, 0x00, 0x00, 0x00, 0x38, 0x55, 0x01, 0x00,
   0x00, 0x00, 0x00, 0x00, 0x00, 0x95, 0x7f, 0x00, 0x00, 0x00, 0x00, 0x00,
   0x00, 0x00, 0x00, 0x70, 0xaa, 0x0a, 0x00, 0x00, 0x00, 0x00, 0x00, 0xa0,
   0xca, 0x7f, 0x00, 0x00, 0x00, 0x00, 0x00, 0x00, 0x00, 0x00, 0xf0, 0x54,
   0x55, 0x04, 0x00, 0x55, 0x05, 0x00, 0x54, 0xc5, 0x3f, 0x00, 0x00, 0x00,
   0x00, 0x00, 0x00, 0x00, 0x00, 0xf0, 0xa9, 0xaa, 0x0a, 0xa8, 0xaa, 0x2a,
   0x00, 0xaa, 0xe2, 0x3f, 0x00, 0x00, 0x00, 0x00, 0x00, 0x00, 0x00, 0x00,
   0xf0, 0x53, 0x55, 0x05, 0x55, 0x55, 0x55, 0x41, 0x55, 0xf1, 0x3f, 0x00,
   0x00, 0x00, 0x00, 0x00, 0x00, 0x00, 0x00, 0xf0, 0xa7, 0xaa, 0x8a, 0xaa,
   0xaa, 0xaa, 0x82, 0xaa, 0xf2, 0x1f, 0x00, 0x00, 0x00, 0x00, 0x00, 0x00,
   0x00, 0x00, 0xe0, 0x4f, 0x55, 0x45, 0x55, 0x55, 0x55, 0x05, 0x55, 0xf9,
   0x1f, 0x00, 0x00, 0x00, 0x00, 0x00, 0x00, 0x00, 0x00, 0xe0, 0x9f, 0xaa,
   0xa0, 0xaa, 0xaa, 0xaa, 0x8a, 0xaa, 0xf8, 0x1f, 0x00, 0x00, 0x00, 0x00,
   0x00, 0x00, 0x00, 0x00, 0xe0, 0x3f, 0x55, 0x50, 0x55, 0x55, 0x55, 0x15,
   0x55, 0xfc, 0x0f, 0x00, 0x00, 0x00, 0x00, 0x00, 0x00, 0x00, 0x00, 0xe0,
   0x7f, 0x2a, 0xa8, 0xaa, 0xaa, 0xaa, 0x2a, 0xaa, 0xd0, 0x0f, 0x00, 0x00,
   0x00, 0x00, 0x00, 0x00, 0x00, 0x00, 0xe0, 0x07, 0x50, 0x54, 0x55, 0x55,
   0x55, 0x55, 0x55, 0xc4, 0x0f, 0x00, 0x00, 0x00, 0x00, 0x00, 0x00, 0x00,
   0x00, 0xc0, 0x27, 0x08, 0xaa, 0xaa, 0xaa, 0xaa, 0x2a, 0x2a, 0xc7, 0x07,
   0x00, 0x00, 0x00, 0x00, 0x00, 0x00, 0x00, 0x00, 0xc0, 0xc3, 0x10, 0x55,
   0x15, 0x55, 0x55, 0x55, 0x14, 0xd3, 0x07, 0x00, 0x00, 0x00, 0x00, 0x00,
   0x00, 0x00, 0x00, 0xc0, 0x93, 0x81, 0xaa, 0x2a, 0xaa, 0xaa, 0xaa, 0x88,
   0xdb, 0x07, 0x00, 0x00, 0x00, 0x00, 0x00, 0x00, 0x00, 0x00, 0xc0, 0x33,
   0x40, 0x55, 0x55, 0x54, 0x55, 0x55, 0x91, 0x99, 0x03, 0x00, 0x00, 0x00,
   0x00, 0x00, 0x00, 0x00, 0x00, 0x80, 0x7b, 0x80, 0xaa, 0x2a, 0xa8, 0xaa,
   0xaa, 0x82, 0x9c, 0x03, 0x00, 0x00, 0x00, 0x00, 0x00, 0x00, 0x00, 0x00,
   0x80, 0xfb, 0x0c, 0x55, 0x55, 0x40, 0x55, 0x55, 0x85, 0xce, 0x03, 0x00,
   0x00, 0x00, 0x00, 0x00, 0x00, 0x00, 0x00, 0x80, 0x37, 0x1e, 0xa8, 0xaa,
   0x84, 0x2a, 0xaa, 0x0a, 0xc6, 0x01, 0x00, 0x00, 0x00, 0x00, 0x00, 0x00,
   0x00, 0x00, 0x00, 0x83, 0xff, 0x40, 0x55, 0x0d, 0x55, 0x40, 0x55, 0xc0,
   0x00, 0x00, 0x00, 0x00, 0x00, 0x00, 0x00, 0x00, 0x00, 0x00, 0xf3, 0xff,
   0x03, 0xaa, 0x38, 0xa8, 0x00, 0x28, 0x88, 0x00, 0x00, 0x00, 0x00, 0x00,
   0x00, 0x00, 0x00, 0x00, 0x00, 0xf9, 0xff, 0x1f, 0x50, 0xf9, 0x50, 0x21,
   0x00, 0x1e, 0x00, 0x00, 0x00, 0x00, 0x00, 0x00, 0x00, 0x00, 0x00, 0x00,
   0xf8, 0xf3, 0xff, 0x01, 0xf0, 0x83, 0xca, 0x83, 0x3f, 0x00, 0x00, 0x00,
   0x00, 0x00, 0x00, 0x00, 0x00, 0x00, 0x00, 0xfc, 0xf0, 0xff, 0x1f, 0xe0,
   0x0f, 0x80, 0x1f, 0x3f, 0x00, 0x00, 0x00, 0x00, 0x00, 0x00, 0x00, 0x00,
   0x00, 0x00, 0x7c, 0xfc, 0xff, 0xff, 0xff, 0x3f, 0x00, 0x7f, 0x7e, 0x00,
   0x00, 0x00, 0x00, 0x00, 0x00, 0x00, 0x00, 0x00, 0x00, 0x3c, 0xfe, 0xef,
   0xff, 0xff, 0xff, 0xe7, 0xff, 0x7c, 0x00, 0x00, 0x00, 0x00, 0x00, 0x00,
   0x00, 0x00, 0x00, 0x00, 0x1e, 0xff, 0x01, 0xff, 0xff, 0xff, 0x01, 0xff,
   0x79, 0x00, 0x00, 0x00, 0x00, 0x00, 0x00, 0x00, 0x00, 0x00, 0x00, 0x9e,
   0x7f, 0x00, 0xfc, 0xff, 0x7f, 0x00, 0xfc, 0xf9, 0x00, 0x00, 0x00, 0x00,
   0x00, 0x00, 0x00, 0x00, 0x00, 0x00, 0xcf, 0x1f, 0x1c, 0xfc, 0xff, 0x3f,
   0x34, 0xf8, 0xf3, 0x00, 0x00, 0x00, 0x00, 0x00, 0x00, 0x00, 0x00, 0x00,
   0x00, 0xcf, 0x0f, 0x7f, 0xf8, 0xff, 0x1f, 0xff, 0xf1, 0xf7, 0x01, 0x00,
   0x00, 0x00, 0x00, 0x00, 0x00, 0x00, 0x00, 0x80, 0xcf, 0x87, 0xff, 0xf1,
   0xff, 0xcf, 0xff, 0xe3, 0xff, 0x01, 0x00, 0x00, 0x00, 0x00, 0x00, 0x00,
   0x00, 0x00, 0x80, 0xff, 0xe3, 0xff, 0xe3, 0xff, 0xe7, 0xff, 0xc7, 0xff,
   0x01, 0x00, 0x00, 0x00, 0x00, 0x00, 0x00, 0x00, 0x00, 0x80, 0xff, 0xf3,
   0xff, 0xc7, 0xff, 0xe7, 0xff, 0xcf, 0xff, 0x01, 0x00, 0x00, 0x00, 0x00,
   0x00, 0x00, 0x00, 0x00, 0x80, 0xff, 0xf1, 0xff, 0xc7, 0xff, 0xf3, 0xff,
   0xcf, 0xff, 0x01, 0x00, 0x00, 0x00, 0x00, 0x00, 0x00, 0x00, 0x00, 0x80,
   0xff, 0xfd, 0xff, 0xcf, 0xff, 0xf3, 0xff, 0x9f, 0xff, 0x03, 0x00, 0x00,
   0x00, 0x00, 0x00, 0x00, 0x00, 0x00, 0xc0, 0xff, 0xfd, 0xff, 0xcf, 0xff,
   0xf9, 0xff, 0x9f, 0xff, 0x03, 0x00, 0x00, 0x00, 0x00, 0x00, 0x00, 0x00,
   0x00, 0xc0, 0xff, 0xfc, 0xff, 0xcf, 0xff, 0xf9, 0xff, 0x9f, 0xff, 0x03,
   0x00, 0x00, 0x00, 0x00, 0x00, 0x00, 0x00, 0x00, 0xc0, 0xff, 0xfc, 0xff,
   0x8f, 0xff, 0xf8, 0xff, 0x9f, 0xff, 0x03, 0x00, 0x00, 0x00, 0x00, 0x00,
   0x00, 0x00, 0x00, 0xc0, 0xff, 0xfc, 0xff, 0x8f, 0xff, 0xf8, 0xff, 0x9f,
   0xff, 0x03, 0x00, 0x00, 0x00, 0x00, 0x00, 0x00, 0x00, 0x00, 0xc0, 0xff,
   0xfc, 0xff, 0x8f, 0xff, 0xf8, 0xff, 0x9f, 0xff, 0x03, 0x00, 0x00, 0x00,
   0x00, 0x00, 0x00, 0x00, 0x00, 0xc0, 0xff, 0xfc, 0xff, 0x8f, 0xff, 0xf8,
   0xff, 0x9f, 0xff, 0x03, 0x00, 0x00, 0x00, 0x00, 0x00, 0x00, 0x00, 0x00,
   0xc0, 0xff, 0xfc, 0xff, 0x9f, 0xff, 0xf8, 0xff, 0xbf, 0xff, 0x03, 0x00,
   0x00, 0x00, 0x00, 0x00, 0x00, 0x00, 0x00, 0xc0, 0xff, 0xfc, 0xff, 0x9f,
   0xff, 0xf8, 0xff, 0xbf, 0xff, 0x03, 0x00, 0x00, 0x00, 0x00, 0x00, 0x00,
   0x00, 0x00, 0xc0, 0xff, 0xfc, 0xff, 0x9f, 0xff, 0xf8, 0xff, 0xbf, 0xff,
   0x03, 0x00, 0x00, 0x00, 0x00, 0x00, 0x00, 0x00, 0x00, 0xc0, 0xff, 0xfc,
   0xff, 0x9f, 0xff, 0xfc, 0xff, 0xbf, 0xff, 0x03, 0x00, 0x00, 0x00, 0x00,
   0x00, 0x00, 0x00, 0x00, 0xc0, 0xff, 0xfc, 0xff, 0x9f, 0xff, 0xfc, 0xff,
   0xbf, 0xff, 0x03, 0x00, 0x00, 0x00, 0x00, 0x00, 0x00, 0x00, 0x00, 0xc0,
   0xff, 0xfc, 0xff, 0x9f, 0xff, 0xfc, 0xff, 0xbf, 0xff, 0x03, 0x00, 0x00,
   0x00, 0x00, 0x00, 0x00, 0x00, 0x00, 0xc0, 0xff, 0xfc, 0xff, 0x9f, 0xff,
   0xfc, 0xff, 0xbf, 0xff, 0x03, 0x00, 0x00, 0x00, 0x00, 0x00, 0x00, 0x00,
   0x00, 0xc0, 0xff, 0xfc, 0xff, 0x9f, 0xff, 0xfc, 0xff, 0xbf, 0xff, 0x01,
   0x00, 0x00, 0x00, 0x00, 0x00, 0x00, 0x00, 0x00, 0x80, 0xff, 0xfd, 0xff,
   0x9f, 0xff, 0xfc, 0xff, 0xbf, 0xff, 0x01, 0x00, 0x00, 0x00, 0x00, 0x00,
   0x00, 0x00, 0x00, 0x80, 0xff, 0xfd, 0xff, 0x9f, 0xff, 0xfc, 0xff, 0x9f,
   0xff, 0x01, 0x00, 0x00, 0x00, 0x00, 0x00, 0x00, 0x00, 0x00, 0x80, 0xff,
   0xfd, 0xff, 0x9f, 0xff, 0xfc, 0xff, 0x9f, 0xff, 0x01, 0x00, 0x00, 0x00,
   0x00, 0x00, 0x00, 0x00, 0x00, 0x00, 0xff, 0xfd, 0xff, 0xdf, 0xff, 0xfd,
   0xff, 0x9f, 0xff, 0x01, 0x00, 0x00, 0x00, 0x00, 0x00, 0x00, 0x00, 0x00,
   0x00, 0xff, 0xfd, 0xff, 0xdf, 0xff, 0xfd, 0xff, 0x9f, 0xff, 0x01, 0x00,
   0x00, 0x00, 0x00, 0x00, 0x00, 0x00, 0x00, 0x00, 0xff, 0xfd, 0xff, 0xdf,
   0xff, 0xfd, 0xff, 0x9f, 0xff, 0x00, 0x00, 0x00, 0x00, 0x00, 0x00, 0x00,
   0x00, 0x00, 0x00, 0xff, 0xfd, 0xff, 0xdf, 0xff, 0xfd, 0xff, 0x9f, 0xff,
   0x00, 0x00, 0x00, 0x00, 0x00, 0x00, 0x00, 0x00, 0x00, 0x00, 0xfe, 0xfd,
   0xff, 0xdf, 0xff, 0xfd, 0xff, 0xdf, 0x7f, 0x00, 0x00, 0x00, 0x00, 0x00,
   0x00, 0x00, 0x00, 0x00, 0x00, 0xfe, 0xfd, 0xff, 0xdf, 0xff, 0xfd, 0xff,
   0xdf, 0x7f, 0x00, 0x00, 0x00, 0x00, 0x00, 0x00, 0x00, 0x00, 0x00, 0x00,
   0xfc, 0xfd, 0xff, 0xdf, 0xff, 0xfd, 0xff, 0xdf, 0x3f, 0x00, 0x00, 0x00,
   0x00, 0x00, 0x00, 0x00, 0x00, 0x00, 0x00, 0xfc, 0xfd, 0xff, 0xdf, 0xff,
   0xfd, 0xff, 0xdf, 0x3f, 0x00, 0x00, 0x00, 0x00, 0x00, 0x00, 0x00, 0x00,
   0x00, 0x00, 0xf8, 0xfd, 0xff, 0xdf, 0xff, 0xfd, 0xff, 0xdf, 0x1f, 0x00,
   0x00, 0x00, 0x00, 0x00, 0x00, 0x00, 0x00, 0x00, 0x00, 0xf8, 0xfd, 0xff,
   0xdf, 0xff, 0xfd, 0xff, 0xdf, 0x1f, 0x00, 0x00, 0x00, 0x00, 0x00, 0x00,
   0x00, 0x00, 0x00, 0x00, 0xf8, 0x3d, 0x00, 0xd0, 0xff, 0x01, 0x00, 0xd8,
   0x0f, 0x00, 0x00, 0x00, 0x00, 0x00, 0x00, 0x00, 0x00, 0x00, 0x00, 0xf0,
   0x01, 0xc0, 0xc0, 0xff, 0x01, 0x00, 0xc0, 0x0f, 0x00, 0x00, 0x00, 0x00,
   0x00, 0x00, 0x00, 0x00, 0x00, 0x00, 0xe0, 0xff, 0xff, 0xff, 0xff, 0xff,
   0xff, 0xff, 0x07, 0x00, 0x00, 0x00, 0x00, 0x00, 0x00, 0x00, 0x00, 0x00,
   0x00, 0xe0, 0xff, 0xff, 0xff, 0xff, 0xff, 0xff, 0xff, 0x03, 0x00, 0x00,
   0x00, 0x00, 0x00, 0x00, 0x00, 0x00, 0x00, 0x00, 0xfe, 0xff, 0xff, 0xff,
   0xff, 0xff, 0xff, 0xff, 0x01, 0x00, 0x00, 0x00, 0x00, 0x00, 0x00, 0x00,
   0x00, 0x00, 0x00, 0xfc, 0xff, 0xff, 0xff, 0xff, 0xff, 0xff, 0xff, 0x01,
   0x00, 0x00, 0x00, 0x00, 0x00, 0x00, 0x00, 0x00, 0x00, 0x00, 0xf0, 0xff,
   0xff, 0xff, 0xff, 0xff, 0xff, 0x7f, 0x00, 0x00, 0x00, 0x00, 0x00, 0x00,
   0x00, 0x00, 0x00, 0x00, 0x00, 0xe0, 0xff, 0xff, 0xff, 0xf3, 0xf7, 0xff,
   0x3f, 0x00, 0x00, 0x00, 0x00, 0x00, 0x00, 0x00, 0x00, 0x00, 0x00, 0x00,
   0xc0, 0xff, 0xff, 0xf9, 0xe1, 0xf3, 0xff, 0x1f, 0x00, 0x00, 0x00, 0x00,
   0x00, 0x00, 0x00, 0x00, 0x00, 0x00, 0x00, 0x00, 0xff, 0xff, 0x01, 0xcc,
   0xf0, 0xff, 0x0f, 0x00, 0x00, 0x00, 0x00, 0x00, 0x00, 0x00, 0x00, 0x00,
   0x00, 0x00, 0x00, 0xfc, 0xff, 0x07, 0x1e, 0xf8, 0xff, 0x07, 0x00, 0x00,
   0x00, 0x00, 0x00, 0x00, 0x00, 0x00, 0x00, 0x00, 0x00, 0x00, 0xf0, 0xff,
   0x87, 0xff, 0xf9, 0xff, 0x01, 0x00, 0x00, 0x00, 0x00, 0x00, 0x00, 0x00,
   0x00, 0x00, 0x00, 0x00, 0x00, 0xc0, 0xff, 0xcf, 0xff, 0xff, 0x7f, 0x00,
   0x00, 0x00, 0x00, 0x00, 0x00, 0x00, 0x00, 0x00, 0x00, 0x00, 0x00, 0x00,
   0x00, 0xff, 0xff, 0xff, 0xff, 0x3f, 0x00, 0x00, 0x00, 0x00, 0x00, 0x00,
   0x00, 0x00, 0x00, 0x00, 0x00, 0x00, 0x00, 0x00, 0xf8, 0xff, 0xff, 0xff,
   0x0f, 0x80, 0xff, 0x00, 0x00, 0x00, 0x00, 0x00, 0x00, 0x00, 0x00, 0x00,
   0x00, 0x00, 0x00, 0x00, 0xf0, 0x81, 0x07, 0x00, 0x00, 0xff, 0x07, 0x00,
   0x00, 0x00, 0x00, 0x00, 0x00, 0x00, 0x00, 0x00, 0x00, 0x80, 0xaa, 0x80,
   0x28, 0x80, 0xaa, 0x00, 0xfc, 0x1f, 0x00, 0x00, 0x00, 0x00, 0x00, 0x00,
   0x00, 0x00, 0x00, 0x00, 0x50, 0x55, 0x15, 0x14, 0x54, 0x55, 0xe5, 0xf0,
   0x3f, 0x00, 0x00, 0x00, 0x00, 0x00, 0x00, 0x00, 0x00, 0x00, 0x00, 0x80,
   0xa2, 0x0a, 0x8a, 0xa8, 0xa2, 0xe2, 0xc3, 0x7f, 0x00, 0x00, 0x00, 0x00,
   0x00, 0x00, 0x00, 0x00, 0x00, 0x00, 0x40, 0x05, 0x00, 0x55, 0x01, 0x50,
   0xf1, 0x01, 0xff, 0x00, 0x00, 0x00, 0x00, 0x00, 0x00, 0x00, 0x00, 0x00,
   0x00, 0x80, 0xaa, 0x80, 0x8a, 0x80, 0xaa, 0x78, 0x38, 0xfe, 0x01, 0x00,
   0x00, 0x00, 0x00, 0x00, 0x00, 0x00, 0x00, 0x00, 0x00, 0x55, 0x05, 0x45,
   0x51, 0x55, 0x3c, 0x7e, 0xfc, 0x03, 0x00, 0x00, 0x00, 0x00, 0x00, 0x00,
   0x00, 0x00, 0x00, 0x80, 0xaa, 0x8a, 0xa2, 0xa8, 0xaa, 0x3e, 0xff, 0xf9,
   0x07, 0x00, 0x00, 0x00, 0x00, 0x00, 0x00, 0x00, 0x00, 0x00, 0x00, 0x55,
   0x01, 0x51, 0x41, 0x55, 0x9e, 0xff, 0xf3, 0x0f, 0x00, 0x00, 0x00, 0x00,
   0x00, 0x00, 0x00, 0x00, 0x00, 0x00, 0x2a, 0x28, 0xa8, 0x08, 0x2a, 0xce,
   0xff, 0xe0, 0x0f, 0x00, 0x00, 0x00, 0x00, 0x00, 0x00, 0x80, 0x0f, 0x00,
   0x00, 0x15, 0x55, 0x14, 0x54, 0x54, 0xcc, 0xff, 0xc1, 0x1f, 0x00, 0x00,
   0x00, 0x00, 0x00, 0x00, 0xf0, 0x07, 0x00, 0x80, 0xaa, 0x2a, 0x00, 0xaa,
   0xaa, 0xec, 0xff, 0xc0, 0x1f, 0x00, 0x00, 0x00, 0x00, 0x00, 0x00, 0xfe,
   0x63, 0x00, 0x00, 0x55, 0x15, 0x00, 0x54, 0x55, 0xe4, 0x7f, 0x9e, 0x1f,
   0x00, 0x00, 0x00, 0x00, 0x00, 0x00, 0xff, 0xf1, 0x00, 0x80, 0xaa, 0x0a,
   0x00, 0xa8, 0xaa, 0xe0, 0x1f, 0x9f, 0x1f, 0x00, 0x00, 0x00, 0x00, 0x00,
   0x80, 0xff, 0xf8, 0x01, 0x00, 0x55, 0x85, 0xff, 0x50, 0x55, 0xf0, 0x9f,
   0x3f, 0x1f, 0x00, 0x00, 0x00, 0x00, 0x00, 0xc0, 0x7f, 0xfc, 0x03, 0x00,
   0xaa, 0xc2, 0xff, 0xa1, 0x2a, 0xf0, 0xcf, 0x3f, 0x0f, 0x00, 0x00, 0x00,
   0x00, 0x00, 0xc0, 0x3f, 0xe0, 0x03, 0x00, 0x54, 0xf0, 0xff, 0x07, 0x15,
   0xf0, 0xe7, 0x7f, 0x0e, 0x00, 0x00, 0x00, 0x00, 0x00, 0xe0, 0x3f, 0xc3,
   0x07, 0x00, 0x08, 0x0e, 0x80, 0x3f, 0x08, 0xf0, 0xe7, 0x7f, 0x0e, 0x00,
   0x00, 0x00, 0x00, 0x00, 0xe0, 0x9f, 0x87, 0x07, 0x00, 0xc0, 0x00, 0x00,
   0xf8, 0x01, 0xe0, 0xf7, 0xff, 0x06, 0x00, 0x00, 0x00, 0x00, 0x00, 0xf0,
   0x8f, 0x1f, 0x07, 0x00, 0x1f, 0xfc, 0xff, 0xc1, 0x0f, 0xc0, 0xf3, 0xff,
   0x04, 0x00, 0x00, 0x00, 0x00, 0x00, 0xf0, 0xcf, 0x3f, 0x06, 0x80, 0x87,
   0xff, 0xff, 0x8f, 0x3f, 0x80, 0xf3, 0xff, 0x00, 0x00, 0x00, 0x00, 0x00,
   0x00, 0xf8, 0xc7, 0x7f, 0x06, 0xe0, 0xf3, 0xff, 0xf3, 0x3f, 0xfe, 0x00,
   0xf3, 0xff, 0x01, 0x00, 0x00, 0x00, 0x00, 0x00, 0xf8, 0xa7, 0xff, 0x00,
   0xf0, 0xf8, 0xbf, 0xe1, 0xff, 0xf8, 0x01, 0xf0, 0xe7, 0x00, 0x00, 0x00,
   0x00, 0x00, 0x00, 0xf8, 0x03, 0xff, 0x01, 0x78, 0xfe, 0x9f, 0xe5, 0xff,
   0xf1, 0x03, 0xc0, 0x0f, 0x00, 0x00, 0x00, 0x00, 0x00, 0x00, 0xf8, 0x13,
   0xfc, 0x03, 0x3e, 0xff, 0x9f, 0xf7, 0xff, 0xe7, 0x07, 0x00, 0x00, 0x00,
   0x00, 0x00, 0x00, 0x00, 0x00, 0xf8, 0x73, 0xfc, 0x03, 0x8f, 0xbd, 0xbf,
   0xf7, 0xff, 0xcf, 0x0f, 0x00, 0x00, 0x00, 0x00, 0x00, 0x00, 0x00, 0x00,
   0xf8, 0xf9, 0xfc, 0x87, 0xe7, 0x9c, 0xbf, 0xf3, 0xff, 0x1e, 0x0f, 0x00,
   0x00, 0x00, 0x00, 0x00, 0x00, 0x00, 0x00, 0xf8, 0xf9, 0xf9, 0x83, 0xf3,
   0x9c, 0xbf, 0xbb, 0x7f, 0x3e, 0x1e, 0x00, 0x00, 0x00, 0x00, 0x00, 0x00,
   0x00, 0x00, 0xf8, 0xfd, 0xf3, 0xc1, 0xfb, 0xbd, 0x3f, 0x81, 0x7f, 0x7e,
   0x3e, 0x00, 0x00, 0x00, 0x00, 0x00, 0x00, 0x00, 0x00, 0xf8, 0xfc, 0xe3,
   0xc1, 0xf9, 0xbd, 0x3f, 0xe3, 0xff, 0xfe, 0x3c, 0x00, 0x00, 0x00, 0x00,
   0x00, 0x00, 0x00, 0x00, 0xf8, 0xfc, 0xe7, 0xe1, 0xfc, 0xbd, 0x1f, 0xff,
   0xff, 0xfe, 0x79, 0x00, 0x00, 0x00, 0x00, 0x00, 0x00, 0x00, 0x00, 0xf0,
   0xfc, 0xc7, 0x70, 0xfe, 0x1d, 0xfe, 0xff, 0xff, 0xfe, 0x73, 0x00, 0x00,
   0x00, 0x00, 0x00, 0x00, 0x00, 0x00, 0xf0, 0xfe, 0x0f, 0x70, 0xfe, 0x10,
   0xfe, 0xff, 0x7f, 0xf8, 0xf3, 0x00, 0x00, 0x00, 0x00, 0x00, 0x00, 0x00,
   0x00, 0xf0, 0xfe, 0x3f, 0x30, 0xff, 0xf0, 0xff, 0xff, 0x3f, 0xfc, 0xe7,
   0x00, 0x00, 0x00, 0x00, 0x00, 0x00, 0x00, 0x00, 0x70, 0xfe, 0x07, 0xb8,
   0xff, 0xff, 0xff, 0xff, 0xff, 0xff, 0xe7, 0x01, 0x00, 0x00, 0x00, 0x00,
   0x00, 0x00, 0x00, 0x60, 0xfe, 0x03, 0x9c, 0xff, 0xff, 0xff, 0xff, 0xff,
   0xff, 0xcf, 0x01, 0x00, 0x00, 0x00, 0x00, 0x00, 0x00, 0x00, 0x60, 0xfe,
   0x00, 0xdc, 0xff, 0xff, 0xff, 0xff, 0xff, 0xff, 0xcf, 0x01, 0x00, 0x00,
   0x00, 0x00, 0x00, 0x00, 0x00, 0x40, 0x1e, 0x00, 0xde, 0x1e, 0xff, 0xff,
   0xff, 0xff, 0xff, 0xdf, 0x03, 0x00, 0x00, 0x00, 0x00, 0x00, 0x00, 0x00,
   0x00, 0x00, 0x00, 0xce, 0x0e, 0xff, 0xff, 0xff, 0xff, 0x7f, 0x98, 0x03,
   0x00, 0x00, 0x00, 0x00, 0x00, 0x00, 0x00, 0x00, 0x00, 0x00, 0x6e, 0x6e,
   0xfe, 0xff, 0xff, 0xff, 0x3f, 0x99, 0x03, 0x00, 0x00, 0x00, 0x00, 0x00,
   0x00, 0x00, 0x00, 0x00, 0x00, 0x6e, 0x66, 0xfe, 0xff, 0xff, 0xff, 0xbf,
   0x39, 0x03, 0x00, 0x00, 0x00, 0x02, 0x00, 0x00, 0x00, 0x00, 0x00, 0x00,
   0xe6, 0xe6, 0xfe, 0xff, 0xff, 0xff, 0xff, 0x3d, 0x07, 0x00, 0x00, 0x40,
   0x01, 0x00, 0x00, 0x00, 0x00, 0x00, 0x00, 0xe6, 0xee, 0xfe, 0xff, 0xff,
   0xff, 0xff, 0x3c, 0x07, 0x00, 0x00, 0x80, 0x02, 0x00, 0x00, 0x00, 0x00,
   0x00, 0x00, 0xe6, 0x2e, 0xfe, 0xff, 0xff, 0xff, 0x3f, 0x3c, 0x07, 0x00,
   0x00, 0x48, 0x05, 0x00, 0x00, 0x00, 0x00, 0x00, 0x00, 0xe6, 0x00, 0xff,
   0xff, 0xff, 0xff, 0x3f, 0x30, 0x07, 0x00, 0x00, 0xa6, 0x02, 0x00, 0x00,
   0x00, 0x00, 0x00, 0x00, 0x66, 0x18, 0xff, 0xff, 0xff, 0xff, 0x3f, 0x3b,
   0x07, 0x00, 0x00, 0x57, 0x05, 0x00, 0x00, 0x00, 0x00, 0x00, 0x00, 0xe6,
   0xff, 0xff, 0xff, 0xff, 0xff, 0xff, 0x7f, 0x07, 0x00, 0xc0, 0xa3, 0x02,
   0x00, 0x00, 0x00, 0x00, 0x00, 0x00, 0xe6, 0xff, 0xff, 0xff, 0xff, 0xff,
   0xff, 0x7f, 0x07, 0x00, 0xc0, 0x53, 0x05, 0x00, 0x00, 0x00, 0x00, 0x00,
   0x00, 0xe6, 0xff, 0xff, 0xff, 0xff, 0xff, 0xff, 0x7f, 0x07, 0x00, 0xe0,
   0xa9, 0x02, 0x00, 0x00, 0x00, 0x00, 0x00, 0x00, 0xe6, 0xff, 0xff, 0xff,
   0xff, 0xff, 0xff, 0x7f, 0x07, 0x00, 0xe0, 0x55, 0x05, 0x00, 0x00, 0x00,
   0x00, 0x00, 0x00, 0xe6, 0xff, 0xff, 0xff, 0xff, 0xff, 0xff, 0x3f, 0x07,
   0x00, 0xe0, 0xa8, 0x02, 0x00, 0x00, 0x00, 0x00, 0x00, 0x00, 0xe6, 0xff,
   0xff, 0xff, 0xff, 0xff, 0xff, 0x3f, 0x07, 0x00, 0xe0, 0x54, 0x05, 0x00,
   0x00, 0x00, 0x00, 0x00, 0x00, 0xe6, 0xfd, 0xff, 0xff, 0xff, 0xff, 0xff,
   0x3f, 0x07, 0x00, 0x40, 0xaa, 0x02, 0x00, 0x00, 0x00, 0x00, 0x00, 0x00,
   0xe6, 0xf0, 0xff, 0xff, 0xff, 0xff, 0xff, 0x33, 0x07, 0x00, 0x00, 0x55,
   0x05, 0x00, 0x00, 0x00, 0x00, 0x00, 0x00, 0x26, 0xf2, 0xff, 0xff, 0xff,
   0xff, 0x7f, 0x30, 0x07, 0x00, 0x80, 0xaa, 0x0a, 0x00, 0x00, 0x00, 0x00,
   0x00, 0x00, 0x26, 0xf3, 0xff, 0xff, 0xff, 0xff, 0x7f, 0x32, 0x07, 0x00,
   0x00, 0x55, 0x05, 0x00, 0x00, 0x00, 0x00, 0x00, 0x00, 0xa6, 0xf1, 0xff,
   0xff, 0xf8, 0xff, 0xff, 0x20, 0x07, 0x00, 0x80, 0xaa, 0x0a, 0x00, 0x00,
   0x00, 0x00, 0x00, 0x00, 0x26, 0xf0, 0xff, 0xff, 0xf8, 0xff, 0xff, 0x2c,
   0x07, 0x00, 0x40, 0x55, 0x05, 0x00, 0x00, 0x00, 0x00, 0x00, 0x00, 0xe6,
   0xf3, 0xff, 0xff, 0xf8, 0xff, 0xff, 0x2f, 0x07, 0x00, 0xa0, 0xaa, 0x0a,
   0x00, 0x00, 0x00, 0x00, 0x00, 0x00, 0xe6, 0xfb, 0xff, 0xff, 0xff, 0xff,
   0xff, 0x27, 0x07, 0x00, 0x50, 0x55, 0x05, 0x00, 0x00, 0x00, 0x00, 0x00,
   0x00, 0x66, 0xf8, 0xff, 0xff, 0xff, 0xff, 0xff, 0x20, 0x07, 0x00, 0xa0,
   0xaa, 0x0a, 0x00, 0x00, 0x50, 0x05, 0x00, 0x00, 0x66, 0xfc, 0xff, 0xff,
   0xff, 0xff, 0xff, 0x30, 0x07, 0x00, 0x50, 0x55, 0x05, 0x00, 0x00, 0xa0,
   0xaa, 0x00, 0x00, 0xe6, 0xff, 0xff, 0xff, 0xff, 0xff, 0xff, 0x3f, 0x07,
   0x00, 0xa8, 0xaa, 0x0a, 0x00, 0x00, 0x50, 0x55, 0x01, 0x00, 0xe6, 0xff,
   0xff, 0xff, 0xff, 0xff, 0xff, 0x3f, 0x07, 0x00, 0x54, 0x55, 0x05, 0x00,
   0x00, 0xa0, 0xaa, 0x0a, 0x00, 0xe6, 0xff, 0xff, 0xff, 0xff, 0xff, 0xff,
   0x3f, 0x07, 0x00, 0xaa, 0xaa, 0x0a, 0x00, 0x00, 0x40, 0x55, 0x15, 0x00,
   0xe6, 0xff, 0xff, 0xff, 0xff, 0xff, 0xff, 0x3f, 0x07, 0x00, 0x55, 0x55,
   0x05, 0x00, 0x00, 0xa0, 0xaa, 0xaa, 0x00, 0xe6, 0xff, 0xff, 0xff, 0xff,
   0xff, 0xff, 0x3f, 0x07, 0x80, 0xaa, 0xaa, 0x0a, 0x00, 0x00, 0x40, 0x55,
   0x55, 0x01, 0xe6, 0xff, 0xff, 0xff, 0xff, 0xff, 0xff, 0x3f, 0x07, 0x40,
   0x55, 0x55, 0x05, 0x00, 0x00, 0x80, 0xaa, 0xaa, 0x0a, 0xe6, 0xff, 0xff,
   0xff, 0xff, 0xff, 0xff, 0x3f, 0x03, 0x80, 0xaa, 0xaa, 0x0a, 0x00, 0x00,
   0x40, 0x55, 0x55, 0x15, 0xe6, 0xff, 0xff, 0xff, 0xff, 0xff, 0xff, 0x3f,
   0x03, 0x40, 0x55, 0x55, 0x05, 0x00, 0x00, 0x80, 0xaa, 0xaa, 0x2a, 0xe0,
   0xff, 0xff, 0xff, 0xff, 0xff, 0xff, 0x3f, 0x03, 0xa0, 0xaa, 0xaa, 0x0a,
   0x00, 0x00, 0x40, 0x55, 0x55, 0x55, 0xe1, 0xe1, 0xff, 0xff, 0xff, 0xff,
   0xff, 0x3a, 0x03, 0x50, 0x55, 0x55, 0x05, 0x00, 0x00, 0x80, 0xaa, 0xaa,
   0xaa, 0x42, 0xe4, 0xff, 0xff, 0xff, 0xff, 0x7f, 0x3a, 0x03, 0xa8, 0xaa,
   0xaa, 0x0a, 0x00, 0x00, 0x00, 0x55, 0x55, 0x55, 0x05, 0xe7, 0xff, 0xff,
   0xff, 0xff, 0x7f, 0x3a, 0x03, 0x54, 0x55, 0x55, 0x05, 0x00, 0x00, 0x80,
   0xaa, 0xaa, 0xaa, 0x2a, 0xe6, 0xff, 0xff, 0xff, 0xff, 0x7f, 0x31, 0x03,
   0xaa, 0xaa, 0xaa, 0x0a, 0x00, 0x00, 0x00, 0x55, 0x55, 0x55, 0x55, 0xe0,
   0xff, 0xff, 0xff, 0xff, 0x3f, 0x20, 0x03, 0x55, 0x55, 0x55, 0x05, 0x00,
   0x00, 0x00, 0xaa, 0xaa, 0xaa, 0xaa, 0xc0, 0xff, 0xff, 0xff, 0xff, 0x1f,
   0x38, 0x03, 0xaa, 0xaa, 0xaa, 0x02, 0x00, 0x00, 0x00, 0x55, 0x55, 0x55,
   0x55, 0xc5, 0xff, 0xff, 0xff, 0xff, 0x9f, 0x19, 0x03, 0x55, 0x55, 0x55,
   0x05, 0x00, 0x00, 0x00, 0xaa, 0xaa, 0xaa, 0xaa, 0x8a, 0xff, 0xff, 0xff,
   0xff, 0xff, 0x99, 0x83, 0xaa, 0xaa, 0xaa, 0x02, 0x00, 0x00, 0x00, 0x54,
   0x55, 0x55, 0x55, 0x15, 0xff, 0xff, 0xff, 0xff, 0xff, 0x99, 0x41, 0x55,
   0x55, 0x55, 0x05, 0x00, 0x00, 0x00, 0xaa, 0xaa, 0xaa, 0xaa, 0x2a, 0xfe,
   0xff, 0xff, 0xff, 0xff, 0x9f, 0xa1, 0xaa, 0xaa, 0xaa, 0x02, 0x00, 0x00,
   0x00, 0x54, 0x55, 0x55, 0x55, 0x55, 0xfc, 0xff, 0xff, 0xff, 0xff, 0xdf,
   0x51, 0x55, 0x55, 0x55, 0x05, 0x00, 0x00, 0x00, 0xa8, 0xaa, 0xaa, 0xaa,
   0xaa, 0xf0, 0xff, 0xff, 0xff, 0xff, 0xcf, 0xa9, 0xaa, 0xaa, 0xaa, 0x02,
   0x00, 0x00, 0x00, 0x50, 0x55, 0x55, 0x55, 0x55, 0xe1, 0xff, 0xff, 0xff,
   0xff, 0xef, 0x54, 0x55, 0x55, 0x55, 0x05, 0x00, 0x00, 0x00, 0xa8, 0xaa,
   0xaa, 0xaa, 0xaa, 0xc2, 0xff, 0xff, 0xff, 0xff, 0x67, 0xaa, 0xaa, 0xaa,
   0xaa, 0x02, 0x00, 0x00, 0x00, 0x50, 0x55, 0x55, 0x55, 0x55, 0x95, 0xff,
   0xff, 0xff, 0xfb, 0x33, 0x55, 0x55, 0x55, 0x55, 0x01, 0x00, 0x00, 0x00,
   0xa0, 0xaa, 0xaa, 0xaa, 0xaa, 0x2a, 0xff, 0xff, 0x0f, 0xf8, 0xa3, 0xaa,
   0xaa, 0xaa, 0xaa, 0x02, 0x00, 0x00, 0x00, 0x50, 0x55, 0x55, 0x55, 0x55,
   0x55, 0xfe, 0xff, 0x1f, 0xfe, 0x09, 0x55, 0x55, 0x55, 0x55, 0x01, 0x00,
   0x00, 0x00, 0xa0, 0xaa, 0xaa, 0xaa, 0xaa, 0xaa, 0xfc, 0xff, 0x1f, 0xf8,
   0x8c, 0xaa, 0xaa, 0xaa, 0xaa, 0x02, 0x00, 0x00, 0x00, 0x40, 0x55, 0x55,
   0x55, 0x55, 0x55, 0xf1, 0xff, 0x9f, 0x73, 0x46, 0x55, 0x55, 0x55, 0x55,
   0x01, 0x00, 0x00, 0x00, 0x80, 0xaa, 0xaa, 0xaa, 0xaa, 0xaa, 0xe2, 0xe1,
   0xff, 0x33, 0xa3, 0xaa, 0xaa, 0xaa, 0xaa, 0x02, 0x00, 0x00, 0x00, 0x40,
   0x55, 0x55, 0x55, 0x55, 0x55, 0xc5, 0xe0, 0xbf, 0x99, 0x51, 0x55, 0x55,
   0x55, 0x55, 0x01, 0x00, 0x00, 0x00, 0x80, 0xaa, 0xaa, 0xaa, 0xaa, 0xaa,
   0x8a, 0xe4, 0x3f, 0xcc, 0xa8, 0xaa, 0xaa, 0xaa, 0xaa, 0x00, 0x00, 0x00,
   0x00, 0x00, 0x55, 0x55, 0x55, 0x55, 0x55, 0x15, 0xfe, 0x3f, 0x67, 0x54,
   0x55, 0x55, 0x55, 0x55, 0x01, 0x00, 0x00, 0x00, 0x00, 0xaa, 0xaa, 0xaa,
   0xaa, 0xaa, 0x2a, 0xe0, 0xff, 0x31, 0xaa, 0xaa, 0xaa, 0xaa, 0xaa, 0x00,
   0x00, 0x00, 0x00, 0x00, 0x55, 0x55, 0x55, 0x55, 0x55, 0x55, 0xc0, 0xff,
   0x08, 0x55, 0x55, 0x55, 0x55, 0x55, 0x01, 0x00, 0x00, 0x00, 0x00, 0xaa,
   0xaa, 0xaa, 0xaa, 0xaa, 0x2a, 0xd8, 0x3f, 0x8e, 0xaa, 0xaa, 0xaa, 0xaa,
   0xaa, 0x00, 0x00, 0x00, 0x00, 0x00, 0x54, 0x55, 0x55, 0x55, 0x55, 0x55,
   0xd0, 0x0f, 0x47, 0x55, 0x55, 0x55, 0x55, 0x55, 0x00, 0x00, 0x00, 0x00,
   0x00, 0xa8, 0xaa, 0xaa, 0xaa, 0xaa, 0xaa, 0xc0, 0xc3, 0xa3, 0xaa, 0xaa,
   0xaa, 0xaa, 0xaa, 0x00, 0x00, 0x00, 0x00, 0x00, 0x54, 0x55, 0x55, 0x55,
   0x55, 0x55, 0x40, 0xf0, 0x50, 0x55, 0x55, 0x55, 0x55, 0x55, 0x00, 0x00,
   0x00, 0x00, 0x00, 0xa8, 0xaa, 0xaa, 0xaa, 0xaa, 0xaa, 0x00, 0xfe, 0xa0,
   0xaa, 0xaa, 0xaa, 0xaa, 0xaa, 0x00, 0x00, 0x00, 0x00, 0x00, 0x50, 0x55,
   0x55, 0x55, 0x55, 0x55, 0x91, 0x7f, 0x4e, 0x55, 0x55, 0x55, 0x55, 0x55,
   0x00, 0x00, 0x00, 0x00, 0x00, 0xa0, 0xaa, 0xaa, 0xaa, 0xaa, 0xaa, 0x22,
   0x1f, 0x9f, 0xaa, 0xaa, 0xaa, 0xaa, 0x2a, 0x00, 0x00, 0x00, 0x00, 0x00,
   0x40, 0x55, 0x55, 0x55, 0x55, 0x55, 0x65, 0x86, 0x3f, 0x55, 0x55, 0x55,
   0x55, 0x55, 0x00, 0x00, 0x00, 0x00, 0x00, 0xa0, 0xaa, 0xaa, 0xaa, 0xaa,
   0xaa, 0xca, 0xc0, 0x7f, 0xaa, 0xaa, 0xaa, 0xaa, 0x2a, 0x00, 0x00, 0x00,
   0x00, 0x00, 0x40, 0x55, 0x55, 0x55, 0x55, 0x51, 0xc5, 0xe0, 0x7f, 0x54,
   0x55, 0x55, 0x55, 0x15, 0x00, 0x00, 0x00, 0x00, 0x00, 0x80, 0xaa, 0xaa,
   0xaa, 0x0a, 0x00, 0x8a, 0xf8, 0xff, 0xa8, 0xaa, 0xaa, 0xaa, 0x2a, 0x00,
   0x00, 0x00, 0x00, 0x00, 0x00, 0x55, 0x55, 0x55, 0x05, 0x1f, 0x10, 0xfc,
   0xff, 0x54, 0x55, 0x55, 0x55, 0x15, 0x00, 0x00, 0x00, 0x00, 0x00, 0x00,
   0xaa, 0xaa, 0xaa, 0xc2, 0xff, 0x01, 0xff, 0xff, 0xa9, 0xaa, 0xaa, 0xaa,
   0x0a, 0x00, 0x00, 0x00, 0x00, 0x00, 0x00, 0x55, 0x55, 0x55, 0xe5, 0xff,
   0xc7, 0xff, 0xff, 0x55, 0x55, 0x55, 0x55, 0x15, 0x00, 0x00, 0x00, 0x00,
   0x00, 0x00, 0xaa, 0xaa, 0xaa, 0xf2, 0xff, 0xc7, 0xff, 0xff, 0xa9, 0xaa,
   0xaa, 0xaa, 0x0a, 0x00, 0x00, 0x00, 0x00, 0x00, 0x00, 0x54, 0x55, 0x55,
   0xf1, 0xff, 0xcf, 0xff, 0xff, 0x54, 0x55, 0x55, 0x55, 0x05, 0x00, 0x00,
   0x00, 0x00, 0x00, 0x00, 0xa8, 0xaa, 0xaa, 0xf2, 0xff, 0xcf, 0xff, 0x7f,
   0xa8, 0xaa, 0xaa, 0xaa, 0x0a, 0x00, 0x00, 0x00, 0x00, 0x00, 0x00, 0x50,
   0x55, 0x55, 0xf1, 0xff, 0x8f, 0xff, 0x7f, 0x54, 0x55, 0x55, 0x55, 0x05,
   0x00, 0x00, 0x00, 0x00, 0x00, 0x00, 0xa0, 0xaa, 0xaa, 0xf2, 0xff, 0x1f,
   0xff, 0x3f, 0xaa, 0xaa, 0xaa, 0xaa, 0x0a, 0x00, 0x00, 0x00, 0x00, 0x00,
   0x00, 0x50, 0x55, 0x55, 0xf1, 0xff, 0x1f, 0xff, 0x7f, 0x54, 0x55, 0x55,
   0x55, 0x05, 0x00, 0x00, 0x00, 0x00, 0x00, 0x00, 0xa0, 0xaa, 0xaa, 0xf2,
   0xff, 0x3f, 0xfe, 0xff, 0xa8, 0xaa, 0xaa, 0xaa, 0x02, 0x00, 0x00, 0x00,
   0x00, 0x00, 0x00, 0x40, 0x55, 0x55, 0xf1, 0xff, 0x7f, 0xfc, 0xff, 0x51,
   0x55, 0x55, 0x55, 0x01, 0x00, 0x00, 0x00, 0x00, 0x00, 0x00, 0x80, 0xaa,
   0xaa, 0xf2, 0xff, 0xff, 0xf8, 0xff, 0xa3, 0xaa, 0xaa, 0xaa, 0x02, 0x00,
   0x00, 0x00, 0x00, 0x00, 0x00, 0x00, 0x55, 0x55, 0xf5, 0xff, 0xff, 0xf1,
   0xff, 0x47, 0x55, 0x55, 0x55, 0x01, 0x00, 0x00, 0x00, 0x00, 0x00, 0x00,
   0x00, 0xaa, 0xaa, 0xf2, 0xff, 0xff, 0xe7, 0xff, 0x9f, 0xaa, 0xaa, 0xaa,
   0x00, 0x00, 0x00, 0x00, 0x00, 0x00, 0x00, 0x00, 0x54, 0x55, 0xe5, 0xff,
   0xff, 0x8f, 0xff, 0x3f, 0x54, 0x55, 0x55, 0x01, 0x00, 0x00, 0x00, 0x00,
   0x00, 0x00, 0x00, 0xa8, 0xaa, 0xe2, 0xff, 0xff, 0x1f, 0xff, 0xff, 0xa8,
   0xaa, 0xaa, 0x00, 0x00, 0x00, 0x00, 0x00, 0x00, 0x00, 0x00, 0x50, 0x55,
   0xe5, 0xff, 0xff, 0x3f, 0xfc, 0xff, 0x43, 0x55, 0x55, 0x00, 0x00, 0x00,
   0x00, 0x00, 0x00, 0x00, 0x00, 0xa0, 0xaa, 0xea, 0xff, 0xff, 0x7f, 0xf8,
   0xff, 0x1f, 0xa8, 0xaa, 0x00, 0x00, 0x00, 0x00, 0x00, 0x00, 0x00, 0x00,
   0x50, 0x55, 0xc5, 0xff, 0xff, 0x7f, 0xf0, 0xff, 0xff, 0x00, 0x00, 0x00,
   0x00, 0x00, 0x00, 0x00, 0x00, 0x00, 0x00, 0xa0, 0xaa, 0xca, 0xff, 0xff,
   0x7f, 0x80, 0xff, 0xff, 0xff, 0x7f, 0x00, 0x00, 0x00, 0x00, 0x00, 0x00,
   0x00, 0x00, 0x00, 0x55, 0xd5, 0xff, 0xff, 0x3f, 0x00, 0xff, 0xff, 0xff,
   0x3f, 0x00, 0x00, 0x00, 0x00, 0x00, 0x00, 0x00, 0x00, 0x00, 0xaa, 0x8a,
   0xff, 0xff, 0x3f, 0x00, 0xf8, 0xff, 0xff, 0x3f, 0x00, 0x00, 0x00, 0x00,
   0x00, 0x00, 0x00, 0x00, 0x00, 0x50, 0x95, 0xff, 0xff, 0x3f, 0x00, 0xf8,
   0xff, 0xff, 0x1f, 0x00, 0x00, 0x00, 0x00, 0x00, 0x00, 0x00, 0x00, 0x00,
   0x80, 0x2a, 0xff, 0xff, 0x1f, 0x00, 0x80, 0xff, 0xff, 0x0f, 0x00, 0x00,
   0x00, 0x00, 0x00, 0x00, 0x00, 0x00, 0x00, 0x0c, 0x10, 0xff, 0xff, 0x0f,
   0x00, 0x00, 0xfc, 0xff, 0x07, 0x00, 0x00, 0x00, 0x00, 0x00, 0x00, 0x00,
   0x00, 0x00, 0x70, 0x00, 0xfc, 0xff, 0x07, 0x00, 0x00, 0xe0, 0xff, 0x03,
   0x00, 0x00, 0x00, 0x00, 0x00, 0x00, 0x00, 0x00, 0x00, 0xc0, 0x3f, 0xfc,
   0xff, 0x01, 0x00, 0x00, 0x00, 0xfe, 0x01, 0x00, 0x00, 0x00, 0x00, 0x00,
   0x00, 0x00, 0x00, 0x00, 0x80, 0xff, 0xff, 0x3f, 0x00, 0x00, 0x00, 0x00,
   0xe0, 0x00, 0x00, 0x00, 0x00, 0x00, 0x00, 0x00, 0x00, 0x00, 0x00, 0x00,
   0xfe, 0xff, 0x07, 0x00, 0x00, 0x00, 0x00, 0x00, 0x00, 0x00, 0x00, 0x00,
   0x00, 0x00, 0x00, 0x00, 0x00, 0x00, 0x00, 0xf8, 0x7f, 0x00, 0x00, 0x00,
   0x00, 0x00, 0x00, 0x00, 0x00, 0x00, 0x00, 0x00, 0x00, 0x00, 0x00, 0x00,
   0x00, 0x00, 0x60, 0x00, 0x00, 0x00, 0x00, 0x00, 0x00, 0x00, 0x00, 0x00,
   0x00, 0x00, 0x00, 0x00, 0x00, 0x00, 0x00, 0x00, 0x00, 0x00, 0x00, 0x00,
   0x00, 0x00, 0x00, 0x00, 0x00, 0x00, 0x00, 0x00, 0x00, 0x00, 0x00, 0x00,
   0x00, 0x00, 0x00, 0x00, 0x00, 0x00, 0x00, 0x00, 0x00, 0x00, 0x00, 0x00,
   0x00, 0x00, 0x00, 0x00, 0x00, 0x00, 0x00, 0x00, 0x00, 0x00, 0x00, 0x00,
   0x00, 0x00, 0x00, 0x00, 0x00, 0x00, 0x00, 0x00, 0x00, 0x00, 0x00, 0x00,
   0x00, 0x00, 0x00, 0x00, 0x00, 0x00, 0x00, 0x00, 0x00, 0x00, 0x00, 0x00,
   0x00, 0x00, 0x00, 0x00, 0x00, 0x00, 0x00, 0x00, 0x00, 0x00, 0x00, 0x00,
   0x00, 0x00, 0x00, 0x00, 0x00, 0x00, 0x00, 0x00, 0x00, 0x00, 0x00, 0x00,
   0x00, 0x00, 0x00, 0x00, 0x00, 0x00, 0x00, 0x00, 0x00, 0x00, 0x00, 0x00,
   0x00, 0x00, 0x00, 0x00, 0x00, 0x00, 0x00, 0x00, 0x00, 0x00, 0x00, 0x00,
   0x00, 0x00, 0x00, 0x00, 0x00, 0x00, 0x00, 0x00, 0x00, 0x00, 0x00, 0x00,
   0x00, 0x00, 0x00, 0x00, 0x00, 0x00, 0x00, 0x00, 0x00, 0x00, 0x00, 0x00,
   0x00, 0x00, 0x00, 0x00, 0x00, 0x00, 0x00, 0x00, 0x00, 0x00, 0x00, 0x00,
   0x00, 0x00, 0x00, 0x00, 0x00, 0x00, 0x00, 0x00, 0x00, 0x00, 0x00, 0x00,
   0x00, 0x00, 0x00, 0x00, 0x00, 0x00, 0x00, 0x00, 0x00, 0x00, 0x00, 0x00,
   0x00, 0x00, 0x00, 0x00, 0x00, 0x00, 0x00, 0x00, 0x00, 0x00, 0x00, 0x00,
   0x00, 0x00, 0x00, 0x00, 0x00, 0x00, 0x00, 0x00, 0x00, 0x00, 0x00, 0x00,
   0x00, 0x00, 0x00, 0x00, 0x00, 0x00, 0x00, 0x00, 0x00, 0x00, 0x00, 0x00,
   0x00, 0x00, 0x00, 0x00, 0x00, 0x00, 0x00, 0x00, 0x00, 0x00, 0x00, 0x00,
   0x00, 0x00, 0x00, 0x00, 0x00, 0x00, 0x00, 0x00, 0x00, 0x00, 0x00, 0x00,
   0x00, 0x00, 0x00, 0x00, 0x00, 0x00, 0x00, 0x00, 0x00, 0x00, 0x00, 0x00,
   0x00, 0x00, 0x00, 0x00, 0x00, 0x00, 0x00, 0x00, 0x00, 0x00, 0x00, 0x00,
   0x00, 0x00, 0x00, 0x00, 0x00, 0x00, 0x00, 0x00, 0x00, 0x00, 0x00, 0x00,
   0x00, 0x00, 0x00, 0x00, 0x00, 0x00, 0x00, 0x00, 0x00, 0x00, 0x00, 0x00,
   0x00, 0x00, 0x00, 0x00, 0x00, 0x00, 0x00, 0x00, 0x00, 0x00, 0x00, 0x00,
   0x00, 0x00, 0x00, 0x00, 0x00, 0x00, 0x00, 0x00, 0x00, 0x00, 0x00, 0x00,
   0x00, 0x00, 0x00, 0x00, 0x00, 0x00, 0x00, 0x00, 0x00, 0x00, 0x00, 0x00,
   0x00, 0x00, 0x00, 0x00, 0x00, 0x00, 0x00, 0x00, 0x00, 0x00, 0x00, 0x00,
   0x00, 0x00, 0x00, 0x00, 0x00, 0x00, 0x00, 0x00, 0x00, 0x00, 0x00, 0x00,
   0x00, 0x00, 0x00, 0x00, 0x00, 0x00, 0x00, 0x00, 0x00, 0x00, 0x00, 0x00,
   0x00, 0x00, 0x00, 0x00, 0x00, 0x00, 0x00, 0x00, 0x00, 0x00, 0x00, 0x00,
   0x00, 0x00, 0x00, 0x00, 0x00, 0x00, 0x00, 0x00, 0x00, 0x00, 0x00, 0x00,
   0x00, 0x00, 0x00, 0x00, 0x00, 0x00, 0x00, 0x00, 0x00, 0x00, 0x00, 0x00,
   0x00, 0x00, 0x00, 0x00, 0x00, 0x00, 0x00, 0x00, 0x00, 0x00, 0x00, 0x00,
   0x00, 0x00, 0x00, 0x00, 0x00, 0x00, 0x00, 0x00, 0x00, 0x00, 0x00, 0x00,
   0x00, 0x00, 0x00, 0x00, 0x00, 0x00, 0x00, 0x00, 0x00, 0x00, 0x00, 0x00,
   0x00, 0x00, 0x00, 0x00, 0x00, 0x00, 0x00, 0x00, 0x00, 0x00, 0x00, 0x00,
   0x00, 0x00, 0x00, 0x00, 0x00, 0x00, 0x00, 0x00, 0x00, 0x00, 0x00, 0x00,
   0x00, 0x00, 0x00, 0x00, 0x00, 0x00, 0x00, 0x00, 0x00, 0x00, 0x00, 0x00,
   0x00, 0x00, 0x00, 0x00, 0x00, 0x00, 0x00, 0x00, 0x00, 0x00, 0x00, 0x00,
   0x00, 0x00, 0x00, 0x00, 0x00, 0x00, 0x00, 0x00, 0x00, 0x00, 0x00, 0x00,
   0x00, 0x00, 0x00, 0x00, 0x00, 0x00, 0x00, 0x00, 0x00, 0x00, 0x00, 0x00,
   0x00, 0x00, 0x00, 0x00, 0x00, 0x00, 0x00, 0x00, 0x00, 0x00, 0x00, 0x00,
   0x00, 0x00, 0x00, 0x00, 0x00, 0x00, 0x00, 0x00, 0x00, 0x00, 0x00, 0x00,
   0x00, 0x00, 0x00, 0x00, 0x00, 0x00, 0x00, 0x00, 0x00, 0x00, 0x00, 0x00,
   0x00, 0x00, 0x00, 0x00, 0x00, 0x00, 0x00, 0x00, 0x00, 0x00, 0x00, 0x00,
   0x00, 0x00, 0x00, 0x00, 0x00, 0x00, 0x00, 0x00, 0x00, 0x00, 0x00, 0x00,
   0x00, 0x00, 0x00, 0x00, 0x00, 0x00, 0x00, 0x00, 0x00, 0x00, 0x00, 0x00,
   0x00, 0x00, 0x00, 0x00, 0x00, 0x00, 0x00, 0x00, 0x00, 0x00, 0x00, 0x00,
   0x00, 0x00, 0x00, 0x00, 0x00, 0x00, 0x00, 0x00, 0x00, 0x00, 0x00, 0x00,
   0x00, 0x00, 0x00, 0x00, 0x00, 0x00, 0x00, 0x00, 0x00, 0x00, 0x00, 0x00,
   0x00, 0x00, 0x00, 0x00, 0x00, 0x00, 0x00, 0x00, 0x00, 0x00, 0x00, 0x00,
   0x00, 0x00, 0x00, 0x00, 0x00, 0x00, 0x00, 0x00, 0x00, 0x00, 0x00, 0x00,
   0x00, 0x00, 0x00, 0x00, 0x00, 0x00, 0x00, 0x00, 0x00, 0x00, 0x00, 0x00,
   0x00, 0x00, 0x00, 0x00, 0x00, 0x00, 0x00, 0x00, 0x00, 0x00, 0x00, 0x00,
   0x00, 0x00, 0x00, 0x00, 0x00, 0x00, 0x00, 0x00, 0x00, 0x00, 0x00, 0x00,
   0x00, 0x00, 0x00, 0x00, 0x00, 0x00, 0x00, 0x00, 0x00, 0x00, 0x00, 0x00,
   0x00, 0x00, 0x00, 0x00, 0x00, 0x00, 0x00, 0x00, 0x00, 0x00, 0x00, 0x00,
   0x00, 0x00, 0x00, 0x00, 0x00, 0x00, 0x00, 0x00, 0x00, 0x00, 0x00, 0x00,
   0x00, 0x00, 0x00, 0x00, 0x00, 0x00, 0x00, 0x00, 0x00, 0x00, 0x00, 0x00,
   0x00, 0x00, 0x00, 0x00, 0x00, 0x00, 0x00, 0x00, 0x00, 0x00, 0x00, 0x00,
   0x00, 0x00, 0x00, 0x00, 0x00, 0x00, 0x00, 0x00, 0x00, 0x00, 0x00, 0x00,
   0x00, 0x00, 0x00, 0x00, 0x00, 0x00, 0x00, 0x00, 0x00, 0x00, 0x00, 0x00,
   0x00, 0x00, 0x00, 0x00, 0x00, 0x00, 0x00, 0x00, 0x00, 0x00, 0x00, 0x00,
   0x00, 0x00, 0x00, 0x00, 0x00, 0x00, 0x00, 0x00, 0x00, 0x00, 0x00, 0x00,
   0x00, 0x00, 0x00, 0x00, 0x00, 0x00, 0x00, 0x00, 0x00, 0x00, 0x00, 0x00,
   0x00, 0x00, 0x00, 0x00, 0x00, 0x00, 0x00, 0x00, 0x00, 0x00, 0x00, 0x00,
   0x00, 0x00, 0x00, 0x00, 0x00, 0x00, 0x00, 0x00, 0x00, 0x00, 0x00, 0x00,
   0x00, 0x00, 0x00, 0x00, 0x00, 0x00, 0x00, 0x00, 0x00, 0x00, 0x00, 0x00,
   0x00, 0x00, 0x00, 0x00, 0x00, 0x00, 0x00, 0x00, 0x00, 0x00, 0x00, 0x00,
   0x00, 0x00, 0x00, 0x00, 0x00, 0x00, 0x00, 0x00, 0x00, 0x00, 0x00, 0x00,
   0x00, 0x00, 0x00, 0x00, 0x00, 0x00, 0x00, 0x00, 0x00, 0x00, 0x00, 0x00,
   0x00, 0x00, 0x00, 0x00, 0x00, 0x00, 0x00, 0x00, 0x00, 0x00, 0x00, 0x00,
   0x00, 0x00, 0x00, 0x00, 0x00, 0x00, 0x00, 0x00, 0x00, 0x00, 0x00, 0x00,
   0x00, 0x00, 0x00, 0x00, 0x00, 0x00, 0x00, 0x00, 0x00, 0x00, 0x00, 0x00,
   0x00, 0x00, 0x00, 0x00, 0x00, 0x00, 0x00, 0x00, 0x00, 0x00, 0x00, 0x00,
   0x00, 0x00, 0x00, 0x00, 0x00, 0x00, 0x00, 0x00, 0x00, 0x00, 0x00, 0x00,
   0x00, 0x00, 0x00, 0x00, 0x00, 0x00, 0x00, 0x00, 0x00, 0x00, 0x00, 0x00,
   0x00, 0x00, 0x00, 0x00, 0x00, 0x00, 0x00, 0x00, 0x00, 0x00, 0x00, 0x00,
   0x00, 0x00, 0x00, 0x00, 0x00, 0x00, 0x00, 0x00, 0x00, 0x00, 0x00, 0x00,
   0x00, 0x00, 0x00, 0x00, 0x00, 0x00, 0x00, 0x00, 0x00, 0x00, 0x00, 0x00,
   0x00, 0x00, 0x00, 0x00, 0x00, 0x00, 0x00, 0x00, 0x00, 0x00, 0x00, 0x00,
   0x00, 0x00, 0x00, 0x00, 0x00, 0x00, 0x00, 0x00, 0x00, 0x00, 0x00, 0x00,
   0x00, 0x00, 0x00, 0x00, 0x00, 0x00, 0x00, 0x00, 0x00, 0x00, 0x00, 0x00,
   0x00, 0x00, 0x00, 0x00, 0x00, 0x00, 0x00, 0x00, 0x00, 0x00, 0x00, 0x00,
   0x00, 0x00, 0x00, 0x00, 0x00, 0x00, 0x00, 0x00, 0x00, 0x00, 0x00, 0x00,
   0x00, 0x00, 0x00, 0x00, 0x00, 0x00, 0x00, 0x00, 0x00, 0x00, 0x00, 0x00,
   0x00, 0x00, 0x00, 0x00, 0x00, 0x00, 0x00, 0x00, 0x00, 0x00, 0x00, 0x00,
   0x00, 0x00, 0x00, 0x00, 0x00, 0x00, 0x00, 0x00, 0x00, 0x00, 0x00, 0x00,
   0x00, 0x00, 0x00, 0x00, 0x00, 0x00, 0x00, 0x00, 0x00, 0x00, 0x00, 0x00,
   0x00, 0x00, 0x00, 0x00, 0x00, 0x00, 0x00, 0x00, 0x00, 0x00, 0x00, 0x00,
   0x00, 0x00, 0x00, 0x00, 0x00, 0x00, 0x00, 0x00, 0x00, 0x00, 0x00, 0x00,
   0x00, 0x00, 0x00, 0x00, 0x00, 0x00, 0x00, 0x00, 0x00, 0x00, 0x00, 0x00,
   0x00, 0x00, 0x00, 0x00, 0x00, 0x00, 0x00, 0x00, 0x00, 0x00, 0x00, 0x00,
   0x00, 0x00, 0x00, 0x00, 0x00, 0x00, 0x00, 0x00, 0x00, 0x00, 0x00, 0x00,
   0x00, 0x00, 0x00, 0x00, 0x00, 0x00, 0x00, 0x00, 0x00, 0x00, 0x00, 0x00,
   0x00, 0x00, 0x00, 0x00, 0x00, 0x00, 0x00, 0x00, 0x00, 0x00, 0x00, 0x00,
   0x00, 0x00, 0x00, 0x00, 0x00, 0x00, 0x00, 0x00, 0x00, 0x00, 0x00, 0x00,
   0x00, 0x00, 0x00, 0x00, 0x00, 0x00, 0x00, 0x00, 0x00, 0x00, 0x00, 0x00,
   0x00, 0x00, 0x00, 0x00, 0x00, 0x00, 0x00, 0x00, 0x00, 0x00, 0x00, 0x00,
   0x00, 0x00, 0x00, 0x00, 0x00, 0x00, 0x00, 0x00, 0x00, 0x00, 0x00, 0x00,
   0x00, 0x00, 0x00, 0x00, 0x00, 0x00, 0x00, 0x00, 0x00, 0x00, 0x00, 0x00,
   0x00, 0x00, 0x00, 0x00, 0x00, 0x00, 0x00, 0x00, 0x00, 0x00, 0x00, 0x00,
   0x00, 0x00, 0x00, 0x00, 0x00, 0x00, 0x00, 0x00, 0x00, 0x00, 0x00, 0x00,
   0x00, 0x00, 0x00, 0x00, 0x00, 0x00, 0x00, 0x00, 0x00, 0x00, 0x00, 0x00,
   0x00, 0x00, 0x00, 0x00, 0x00, 0x00, 0x00, 0x00, 0x00, 0x00, 0x00, 0x00,
   0x00, 0x00, 0x00, 0x00, 0x00, 0x00, 0x00, 0x00, 0x00, 0x00, 0x00, 0x00,
   0x00, 0x00, 0x00, 0x00, 0x00, 0x00, 0x00, 0x00, 0x00, 0x00, 0x00, 0x00,
   0x00, 0x00, 0x00, 0x00, 0x00, 0x00, 0x00, 0x00, 0x00, 0x00, 0x00, 0x00,
   0x00, 0x00, 0x00, 0x00, 0x00, 0x00, 0x00, 0x00, 0x00, 0x00, 0x00, 0x00,
   0x00, 0x00, 0x00, 0x00, 0x00, 0x00, 0x00, 0x00, 0x00, 0x00, 0x00, 0x00 };
