#define eyes_width 54
#define eyes_height 23
#define eyes_x_hot 1
#define eyes_y_hot 1
static unsigned char eyes_bits[] = {
   0x01, 0x00, 0x38, 0x80, 0x03, 0x00, 0x30, 0x01, 0x00, 0x30, 0x80, 0x03,
   0x00, 0x20, 0x01, 0x00, 0x30, 0x80, 0x03, 0x00, 0x20, 0x01, 0x00, 0x30,
   0x80, 0x03, 0x00, 0x20, 0x01, 0x00, 0x30, 0x80, 0x01, 0x00, 0x20, 0x01,
   0x00, 0x30, 0x80, 0x01, 0x00, 0x20, 0x01, 0x00, 0x30, 0x80, 0x01, 0x00,
   0x20, 0x01, 0x00, 0x30, 0x80, 0x01, 0x00, 0x20, 0x01, 0x00, 0x30, 0x80,
   0x01, 0x00, 0x20, 0x01, 0x00, 0x30, 0x80, 0x01, 0x00, 0x20, 0x01, 0x00,
   0x30, 0x80, 0x01, 0x00, 0x30, 0x01, 0x00, 0x30, 0x80, 0x01, 0x00, 0x30,
   0x01, 0x00, 0x10, 0x00, 0x01, 0x00, 0x30, 0x01, 0x00, 0x10, 0x00, 0x01,
   0x00, 0x30, 0x01, 0x00, 0x10, 0x00, 0x01, 0x00, 0x30, 0x01, 0x00, 0x10,
   0x00, 0x01, 0x00, 0x30, 0x01, 0x00, 0x10, 0x00, 0x01, 0x00, 0x10, 0x01,
   0x00, 0x10, 0x00, 0x01, 0x00, 0x10, 0x01, 0x00, 0x10, 0x00, 0x01, 0x00,
   0x10, 0x01, 0x00, 0x10, 0x00, 0x01, 0x00, 0x10, 0x01, 0x00, 0x10, 0x00,
   0x01, 0x00, 0x10, 0x01, 0x00, 0x10, 0x00, 0x01, 0x00, 0x10, 0xe1, 0xff,
   0x17, 0x00, 0xff, 0xff, 0x13 };
